<!-- Generated by graphviz version 2.38.0 (20140413.2041)
 -->
<!-- Title: agalmic_holdings Pages: 1 -->
<svg width="897pt" height="198pt"
 viewBox="0.00 0.00 896.68 197.61" xmlns="http://www.w3.org/2000/svg" xmlns:xlink="http://www.w3.org/1999/xlink">
<g id="graph0" class="graph" transform="scale(1 1) rotate(0) translate(4 193.613)">
<title>agalmic_holdings</title>
<polygon fill="white" stroke="none" points="-4,4 -4,-193.613 892.678,-193.613 892.678,4 -4,4"/>
<!-- agalmic.holdings -->
<g id="node1" class="node"><title>agalmic.holdings</title>
<g id="a_node1"><a xlink:href="http://agalmic.holdings" xlink:title="agalmic.holdings">
<ellipse fill="none" stroke="black" cx="503.278" cy="-170.011" rx="87.1392" ry="19.7049"/>
<text text-anchor="middle" x="503.278" y="-168.672" font-family="Antykwa Torunska" font-size="14.00">agalmic.holdings</text>
</a>
</g>
</g>
<!-- OpenFurry -->
<g id="node2" class="node"><title>OpenFurry</title>
<g id="a_node2"><a xlink:href="http://openfurry.org" xlink:title="OpenFurry">
<ellipse fill="none" stroke="black" cx="293.278" cy="-94.8066" rx="62.4946" ry="19.7049"/>
<text text-anchor="middle" x="293.278" y="-93.4674" font-family="Antykwa Torunska" font-size="14.00">OpenFurry</text>
</a>
</g>
</g>
<!-- agalmic.holdings&#45;&gt;OpenFurry -->
<g id="edge1" class="edge"><title>agalmic.holdings&#45;&gt;OpenFurry</title>
<path fill="none" stroke="black" d="M457.97,-153.217C424.135,-141.422 377.916,-125.311 343.052,-113.157"/>
<polygon fill="black" stroke="black" points="344.135,-109.828 333.54,-109.841 341.83,-116.438 344.135,-109.828"/>
</g>
<!-- Drab Makyo -->
<g id="node6" class="node"><title>Drab Makyo</title>
<g id="a_node6"><a xlink:href="http://drab-makyo.com" xlink:title="Drab Makyo">
<ellipse fill="none" stroke="black" cx="442.278" cy="-94.8066" rx="68.3004" ry="19.7049"/>
<text text-anchor="middle" x="442.278" y="-93.4674" font-family="Antykwa Torunska" font-size="14.00">Drab Makyo</text>
</a>
</g>
</g>
<!-- agalmic.holdings&#45;&gt;Drab Makyo -->
<g id="edge5" class="edge"><title>agalmic.holdings&#45;&gt;Drab Makyo</title>
<path fill="none" stroke="black" d="M487.885,-150.538C480.606,-141.802 471.79,-131.223 463.858,-121.703"/>
<polygon fill="black" stroke="black" points="466.545,-119.461 457.455,-114.02 461.168,-123.943 466.545,-119.461"/>
</g>
<!-- JNSQ -->
<g id="node7" class="node"><title>JNSQ</title>
<g id="a_node7"><a xlink:href="http://jnsq.us" xlink:title="JNSQ">
<ellipse fill="none" stroke="black" cx="565.278" cy="-94.8066" rx="36.2413" ry="19.7049"/>
<text text-anchor="middle" x="565.278" y="-93.4674" font-family="Antykwa Torunska" font-size="14.00">JNSQ</text>
</a>
</g>
</g>
<!-- agalmic.holdings&#45;&gt;JNSQ -->
<g id="edge6" class="edge"><title>agalmic.holdings&#45;&gt;JNSQ</title>
<path fill="none" stroke="black" d="M518.924,-150.538C526.547,-141.538 535.827,-130.58 544.076,-120.841"/>
<polygon fill="black" stroke="black" points="546.911,-122.909 550.703,-113.016 541.569,-118.385 546.911,-122.909"/>
</g>
<!-- ARTEMIS PRODUCTIONS -->
<g id="node10" class="node"><title>ARTEMIS PRODUCTIONS</title>
<g id="a_node10"><a xlink:href="http://artemis.productions" xlink:title="ARTEMIS PRODUCTIONS">
<ellipse fill="none" stroke="black" cx="754.278" cy="-94.8066" rx="134.3" ry="19.7049"/>
<text text-anchor="middle" x="754.278" y="-93.4674" font-family="Antykwa Torunska" font-size="14.00">ARTEMIS PRODUCTIONS</text>
</a>
</g>
</g>
<!-- agalmic.holdings&#45;&gt;ARTEMIS PRODUCTIONS -->
<g id="edge9" class="edge"><title>agalmic.holdings&#45;&gt;ARTEMIS PRODUCTIONS</title>
<path fill="none" stroke="black" d="M554.374,-154.109C592.592,-142.963 645.216,-127.615 686.879,-115.464"/>
<polygon fill="black" stroke="black" points="688.054,-118.767 696.674,-112.607 686.094,-112.047 688.054,-118.767"/>
</g>
<!-- [adjective][species], Ltd. -->
<g id="node3" class="node"><title>[adjective][species], Ltd.</title>
<g id="a_node3"><a xlink:href="http://adjectivespecies.com" xlink:title="[adjective][species], Ltd.">
<ellipse fill="none" stroke="black" cx="116.278" cy="-19.6022" rx="116.057" ry="19.7049"/>
<text text-anchor="middle" x="116.278" y="-18.263" font-family="Antykwa Torunska" font-size="14.00">[adjective][species], Ltd.</text>
</a>
</g>
</g>
<!-- OpenFurry&#45;&gt;[adjective][species], Ltd. -->
<g id="edge2" class="edge"><title>OpenFurry&#45;&gt;[adjective][species], Ltd.</title>
<path fill="none" stroke="black" d="M257.033,-78.8159C231.317,-68.1803 196.431,-53.7519 167.824,-41.9206"/>
<polygon fill="black" stroke="black" points="168.964,-38.6046 158.385,-38.017 166.288,-45.0732 168.964,-38.6046"/>
</g>
<!-- Hybrid -->
<g id="node4" class="node"><title>Hybrid</title>
<g id="a_node4"><a xlink:href="http://hybrid.ink" xlink:title="Hybrid">
<ellipse fill="none" stroke="black" cx="293.278" cy="-19.6022" rx="42.766" ry="19.7049"/>
<text text-anchor="middle" x="293.278" y="-18.263" font-family="Antykwa Torunska" font-size="14.00">Hybrid</text>
</a>
</g>
</g>
<!-- OpenFurry&#45;&gt;Hybrid -->
<g id="edge3" class="edge"><title>OpenFurry&#45;&gt;Hybrid</title>
<path fill="none" stroke="black" d="M293.278,-74.9546C293.278,-67.1843 293.278,-58.0057 293.278,-49.4252"/>
<polygon fill="black" stroke="black" points="296.778,-49.3902 293.278,-39.3902 289.778,-49.3903 296.778,-49.3902"/>
</g>
<!-- Characters -->
<g id="node5" class="node"><title>Characters</title>
<g id="a_node5"><a xlink:href="http://characters.openfurry.org" xlink:title="Characters">
<ellipse fill="none" stroke="black" cx="416.278" cy="-19.6022" rx="61.9795" ry="19.7049"/>
<text text-anchor="middle" x="416.278" y="-18.263" font-family="Antykwa Torunska" font-size="14.00">Characters</text>
</a>
</g>
</g>
<!-- OpenFurry&#45;&gt;Characters -->
<g id="edge4" class="edge"><title>OpenFurry&#45;&gt;Characters</title>
<path fill="none" stroke="black" d="M321.189,-77.1954C338.567,-66.853 361.105,-53.4388 379.878,-42.2661"/>
<polygon fill="black" stroke="black" points="381.675,-45.2697 388.478,-37.1477 378.095,-39.2544 381.675,-45.2697"/>
</g>
<!-- Warren -->
<g id="node8" class="node"><title>Warren</title>
<g id="a_node8"><a xlink:href="warren.community" xlink:title="Warren">
<ellipse fill="none" stroke="black" cx="554.278" cy="-19.6022" rx="46.1111" ry="19.7049"/>
<text text-anchor="middle" x="554.278" y="-18.263" font-family="Antykwa Torunska" font-size="14.00">Warren</text>
</a>
</g>
</g>
<!-- JNSQ&#45;&gt;Warren -->
<g id="edge7" class="edge"><title>JNSQ&#45;&gt;Warren</title>
<path fill="none" stroke="black" d="M562.446,-74.9546C561.278,-67.1843 559.899,-58.0057 558.609,-49.4252"/>
<polygon fill="black" stroke="black" points="562.049,-48.7591 557.101,-39.3902 555.126,-49.7993 562.049,-48.7591"/>
</g>
<!-- Trans Stock Photography -->
<g id="node9" class="node"><title>Trans Stock Photography</title>
<g id="a_node9"><a xlink:href="transstock.photography" xlink:title="Trans Stock Photography">
<ellipse fill="none" stroke="black" cx="747.278" cy="-19.6022" rx="128.67" ry="19.7049"/>
<text text-anchor="middle" x="747.278" y="-18.263" font-family="Antykwa Torunska" font-size="14.00">Trans Stock Photography</text>
</a>
</g>
</g>
<!-- JNSQ&#45;&gt;Trans Stock Photography -->
<g id="edge8" class="edge"><title>JNSQ&#45;&gt;Trans Stock Photography</title>
<path fill="none" stroke="black" d="M593.493,-82.3836C599.37,-80.0081 605.525,-77.5225 611.278,-75.2044 638.587,-64.2008 668.995,-51.9885 694.121,-41.9084"/>
<polygon fill="black" stroke="black" points="695.496,-45.1278 703.475,-38.1565 692.89,-38.631 695.496,-45.1278"/>
</g>
</g>
</svg>
