<!-- Generated by graphviz version 2.38.0 (20140413.2041)
 -->
<!-- Title: agalmic_holdings Pages: 1 -->
<svg width="539pt" height="432pt"
 viewBox="0.00 0.00 539.17 432.00" xmlns="http://www.w3.org/2000/svg" xmlns:xlink="http://www.w3.org/1999/xlink">
<g id="graph0" class="graph" transform="scale(0.511712 0.511712) rotate(0) translate(4 840.225)">
<title>agalmic_holdings</title>
<polygon fill="white" stroke="none" points="-4,4 -4,-840.225 1049.65,-840.225 1049.65,4 -4,4"/>
<!-- agalmic.holdings -->
<g id="node1" class="node"><title>agalmic.holdings</title>
<g id="a_node1"><a xlink:href="http://agalmic.holdings" xlink:title="agalmic.holdings">
<ellipse fill="none" stroke="black" cx="87.6512" cy="-312.779" rx="87.1392" ry="19.7049"/>
<text text-anchor="middle" x="87.6512" y="-311.44" font-family="Antykwa Torunska" font-size="14.00">agalmic.holdings</text>
</a>
</g>
</g>
<!-- OpenFurry -->
<g id="node2" class="node"><title>OpenFurry</title>
<g id="a_node2"><a xlink:href="http://openfurry.org" xlink:title="OpenFurry">
<ellipse fill="none" stroke="black" cx="344.651" cy="-594.779" rx="62.4946" ry="19.7049"/>
<text text-anchor="middle" x="344.651" y="-593.44" font-family="Antykwa Torunska" font-size="14.00">OpenFurry</text>
</a>
</g>
</g>
<!-- agalmic.holdings&#45;&gt;OpenFurry -->
<g id="edge1" class="edge"><title>agalmic.holdings&#45;&gt;OpenFurry</title>
<path fill="none" stroke="black" d="M102.811,-332.437C124.695,-362.406 168.573,-420.878 210.251,-466.779 244.225,-504.195 286.872,-544.008 314.671,-569.114"/>
<polygon fill="black" stroke="black" points="312.67,-572.021 322.447,-576.103 317.349,-566.815 312.67,-572.021"/>
</g>
<!-- Drab Makyo -->
<g id="node11" class="node"><title>Drab Makyo</title>
<g id="a_node11"><a xlink:href="http://drab-makyo.com" xlink:title="Drab Makyo">
<ellipse fill="none" stroke="black" cx="344.651" cy="-437.779" rx="68.3004" ry="19.7049"/>
<text text-anchor="middle" x="344.651" y="-436.44" font-family="Antykwa Torunska" font-size="14.00">Drab Makyo</text>
</a>
</g>
</g>
<!-- agalmic.holdings&#45;&gt;Drab Makyo -->
<g id="edge10" class="edge"><title>agalmic.holdings&#45;&gt;Drab Makyo</title>
<path fill="none" stroke="black" d="M124.916,-330.556C171.032,-353.162 250.588,-392.16 299.987,-416.375"/>
<polygon fill="black" stroke="black" points="298.626,-419.606 309.145,-420.865 301.707,-413.32 298.626,-419.606"/>
</g>
<!-- JNSQ -->
<g id="node14" class="node"><title>JNSQ</title>
<g id="a_node14"><a xlink:href="http://jnsq.us" xlink:title="JNSQ">
<ellipse fill="none" stroke="black" cx="344.651" cy="-312.779" rx="36.2413" ry="19.7049"/>
<text text-anchor="middle" x="344.651" y="-311.44" font-family="Antykwa Torunska" font-size="14.00">JNSQ</text>
</a>
</g>
</g>
<!-- agalmic.holdings&#45;&gt;JNSQ -->
<g id="edge13" class="edge"><title>agalmic.holdings&#45;&gt;JNSQ</title>
<path fill="none" stroke="black" d="M174.983,-312.779C216.36,-312.779 264.218,-312.779 298.362,-312.779"/>
<polygon fill="black" stroke="black" points="298.496,-316.279 308.496,-312.779 298.496,-309.279 298.496,-316.279"/>
</g>
<!-- ARTEMIS PRODUCTIONS -->
<g id="node19" class="node"><title>ARTEMIS PRODUCTIONS</title>
<g id="a_node19"><a xlink:href="http://artemis.productions" xlink:title="ARTEMIS PRODUCTIONS">
<ellipse fill="none" stroke="black" cx="344.651" cy="-249.779" rx="134.3" ry="19.7049"/>
<text text-anchor="middle" x="344.651" y="-248.44" font-family="Antykwa Torunska" font-size="14.00">ARTEMIS PRODUCTIONS</text>
</a>
</g>
</g>
<!-- agalmic.holdings&#45;&gt;ARTEMIS PRODUCTIONS -->
<g id="edge18" class="edge"><title>agalmic.holdings&#45;&gt;ARTEMIS PRODUCTIONS</title>
<path fill="none" stroke="black" d="M147.153,-298.326C182.248,-289.655 227.323,-278.519 265.447,-269.1"/>
<polygon fill="black" stroke="black" points="266.62,-272.416 275.489,-266.619 264.941,-265.62 266.62,-272.416"/>
</g>
<!-- IP accounts -->
<g id="node20" class="node"><title>IP accounts</title>
<polygon fill="none" stroke="black" points="344.651,-142.724 254.196,-114.779 344.651,-86.8341 435.106,-114.779 344.651,-142.724"/>
<text text-anchor="middle" x="344.651" y="-113.44" font-family="Antykwa Torunska" font-size="14.00">IP accounts</text>
</g>
<!-- agalmic.holdings&#45;&gt;IP accounts -->
<g id="edge19" class="edge"><title>agalmic.holdings&#45;&gt;IP accounts</title>
<path fill="none" stroke="black" d="M113.102,-293.794C159.013,-258.146 258.168,-181.155 310.211,-140.745"/>
<polygon fill="black" stroke="black" points="312.392,-143.483 318.144,-134.585 308.099,-137.954 312.392,-143.483"/>
</g>
<!-- as -->
<g id="node3" class="node"><title>as</title>
<g id="a_node3"><a xlink:href="http://adjectivespecies.com" xlink:title="[adjective][species], Ltd.">
<ellipse fill="none" stroke="black" cx="652.651" cy="-688.779" rx="116.057" ry="19.7049"/>
<text text-anchor="middle" x="652.651" y="-687.44" font-family="Antykwa Torunska" font-size="14.00">[adjective][species], Ltd.</text>
</a>
</g>
</g>
<!-- OpenFurry&#45;&gt;as -->
<g id="edge2" class="edge"><title>OpenFurry&#45;&gt;as</title>
<path fill="none" stroke="black" d="M384.457,-610.02C418.693,-623.145 470.111,-642.082 515.801,-655.779 533.734,-661.156 553.194,-666.288 571.633,-670.835"/>
<polygon fill="black" stroke="black" points="570.916,-674.263 581.461,-673.229 572.573,-667.462 570.916,-674.263"/>
</g>
<!-- Hybrid -->
<g id="node9" class="node"><title>Hybrid</title>
<g id="a_node9"><a xlink:href="http://hybrid.ink" xlink:title="Hybrid">
<ellipse fill="none" stroke="black" cx="652.651" cy="-626.779" rx="42.766" ry="19.7049"/>
<text text-anchor="middle" x="652.651" y="-625.44" font-family="Antykwa Torunska" font-size="14.00">Hybrid</text>
</a>
</g>
</g>
<!-- OpenFurry&#45;&gt;Hybrid -->
<g id="edge8" class="edge"><title>OpenFurry&#45;&gt;Hybrid</title>
<path fill="none" stroke="black" d="M403.928,-600.873C460.782,-606.819 546.405,-615.773 600.638,-621.444"/>
<polygon fill="black" stroke="black" points="600.406,-624.939 610.716,-622.498 601.135,-617.977 600.406,-624.939"/>
</g>
<!-- Characters -->
<g id="node10" class="node"><title>Characters</title>
<g id="a_node10"><a xlink:href="http://characters.openfurry.org" xlink:title="Characters">
<ellipse fill="none" stroke="black" cx="652.651" cy="-563.779" rx="61.9795" ry="19.7049"/>
<text text-anchor="middle" x="652.651" y="-562.44" font-family="Antykwa Torunska" font-size="14.00">Characters</text>
</a>
</g>
</g>
<!-- OpenFurry&#45;&gt;Characters -->
<g id="edge9" class="edge"><title>OpenFurry&#45;&gt;Characters</title>
<path fill="none" stroke="black" d="M404.289,-588.839C455.481,-583.653 529.796,-576.124 583.596,-570.674"/>
<polygon fill="black" stroke="black" points="584.135,-574.137 593.731,-569.647 583.429,-567.173 584.135,-574.137"/>
</g>
<!-- [a][s] Blog -->
<g id="node4" class="node"><title>[a][s] Blog</title>
<g id="a_node4"><a xlink:href="http://adjectivespecies.com" xlink:title="[a][s] Blog">
<ellipse fill="none" stroke="black" cx="935.651" cy="-814.779" rx="56.0709" ry="19.7049"/>
<text text-anchor="middle" x="935.651" y="-813.44" font-family="Antykwa Torunska" font-size="14.00">[a][s] Blog</text>
</a>
</g>
</g>
<!-- as&#45;&gt;[a][s] Blog -->
<g id="edge3" class="edge"><title>as&#45;&gt;[a][s] Blog</title>
<path fill="none" stroke="black" d="M684.736,-707.763C718.479,-727.809 774.387,-759.409 825.396,-780.779 843.019,-788.163 862.824,-794.798 880.682,-800.204"/>
<polygon fill="black" stroke="black" points="879.794,-803.592 890.377,-803.079 881.784,-796.88 879.794,-803.592"/>
</g>
<!-- [a][s] Visualizations -->
<g id="node5" class="node"><title>[a][s] Visualizations</title>
<g id="a_node5"><a xlink:href="http://vis.adjectivespecies.com" xlink:title="[a][s] Visualizations">
<ellipse fill="none" stroke="black" cx="935.651" cy="-751.779" rx="95.4478" ry="19.7049"/>
<text text-anchor="middle" x="935.651" y="-750.44" font-family="Antykwa Torunska" font-size="14.00">[a][s] Visualizations</text>
</a>
</g>
</g>
<!-- as&#45;&gt;[a][s] Visualizations -->
<g id="edge4" class="edge"><title>as&#45;&gt;[a][s] Visualizations</title>
<path fill="none" stroke="black" d="M723.473,-704.433C765.156,-713.778 818.06,-725.64 860.489,-735.152"/>
<polygon fill="black" stroke="black" points="859.957,-738.62 870.481,-737.392 861.489,-731.789 859.957,-738.62"/>
</g>
<!-- The Furry Poll -->
<g id="node6" class="node"><title>The Furry Poll</title>
<g id="a_node6"><a xlink:href="https://furrypoll.com" xlink:title="The Furry Poll">
<ellipse fill="none" stroke="black" cx="935.651" cy="-688.779" rx="78.0034" ry="19.7049"/>
<text text-anchor="middle" x="935.651" y="-687.44" font-family="Antykwa Torunska" font-size="14.00">The Furry Poll</text>
</a>
</g>
</g>
<!-- as&#45;&gt;The Furry Poll -->
<g id="edge5" class="edge"><title>as&#45;&gt;The Furry Poll</title>
<path fill="none" stroke="black" d="M769.161,-688.779C795.238,-688.779 822.501,-688.779 847.2,-688.779"/>
<polygon fill="black" stroke="black" points="847.254,-692.279 857.254,-688.779 847.254,-685.279 847.254,-692.279"/>
</g>
<!-- Love ◦ Sex ◦ Fur -->
<g id="node7" class="node"><title>Love ◦ Sex ◦ Fur</title>
<g id="a_node7"><a xlink:href="http://lovesexfur.com" xlink:title="Love ◦ Sex ◦ Fur">
<ellipse fill="none" stroke="black" cx="935.651" cy="-626.779" rx="88.5782" ry="19.7049"/>
<text text-anchor="middle" x="935.651" y="-625.44" font-family="Antykwa Torunska" font-size="14.00">Love ◦ Sex ◦ Fur</text>
</a>
</g>
</g>
<!-- as&#45;&gt;Love ◦ Sex ◦ Fur -->
<g id="edge6" class="edge"><title>as&#45;&gt;Love ◦ Sex ◦ Fur</title>
<path fill="none" stroke="black" d="M724.197,-673.214C766.339,-663.916 819.754,-652.13 862.225,-642.759"/>
<polygon fill="black" stroke="black" points="863.206,-646.127 872.217,-640.555 861.698,-639.292 863.206,-646.127"/>
</g>
<!-- LSF Guides -->
<g id="node8" class="node"><title>LSF Guides</title>
<g id="a_node8"><a xlink:href="http://guides.lovesexfur.com" xlink:title="LSF Guides">
<ellipse fill="none" stroke="black" cx="935.651" cy="-563.779" rx="63.4008" ry="19.7049"/>
<text text-anchor="middle" x="935.651" y="-562.44" font-family="Antykwa Torunska" font-size="14.00">LSF Guides</text>
</a>
</g>
</g>
<!-- as&#45;&gt;LSF Guides -->
<g id="edge7" class="edge"><title>as&#45;&gt;LSF Guides</title>
<path fill="none" stroke="black" d="M745.285,-676.879C760.991,-672.035 776.436,-665.255 789.502,-655.779 814.042,-637.982 801.432,-616.346 825.396,-597.779 838.27,-587.805 854.104,-580.732 869.681,-575.725"/>
<polygon fill="black" stroke="black" points="870.726,-579.066 879.318,-572.867 868.736,-572.355 870.726,-579.066"/>
</g>
<!-- Writing | Drab Makyo -->
<g id="node12" class="node"><title>Writing | Drab Makyo</title>
<g id="a_node12"><a xlink:href="http://writing.drab-makyo.com" xlink:title="Writing | Drab Makyo">
<ellipse fill="none" stroke="black" cx="652.651" cy="-500.779" rx="112.497" ry="19.7049"/>
<text text-anchor="middle" x="652.651" y="-499.44" font-family="Antykwa Torunska" font-size="14.00">Writing | Drab Makyo</text>
</a>
</g>
</g>
<!-- Drab Makyo&#45;&gt;Writing | Drab Makyo -->
<g id="edge11" class="edge"><title>Drab Makyo&#45;&gt;Writing | Drab Makyo</title>
<path fill="none" stroke="black" d="M400.711,-449.115C447.687,-458.787 515.914,-472.833 569.373,-483.84"/>
<polygon fill="black" stroke="black" points="568.674,-487.269 579.174,-485.858 570.086,-480.413 568.674,-487.269"/>
</g>
<!-- Photography | Drab Makyo -->
<g id="node13" class="node"><title>Photography | Drab Makyo</title>
<g id="a_node13"><a xlink:href="http://makyo.photography" xlink:title="Photography | Drab Makyo">
<ellipse fill="none" stroke="black" cx="652.651" cy="-437.779" rx="136.702" ry="19.7049"/>
<text text-anchor="middle" x="652.651" y="-436.44" font-family="Antykwa Torunska" font-size="14.00">Photography | Drab Makyo</text>
</a>
</g>
</g>
<!-- Drab Makyo&#45;&gt;Photography | Drab Makyo -->
<g id="edge12" class="edge"><title>Drab Makyo&#45;&gt;Photography | Drab Makyo</title>
<path fill="none" stroke="black" d="M413.183,-437.779C440.538,-437.779 473.259,-437.779 505.569,-437.779"/>
<polygon fill="black" stroke="black" points="505.576,-441.279 515.576,-437.779 505.576,-434.279 505.576,-441.279"/>
</g>
<!-- IdeaWheel -->
<g id="node15" class="node"><title>IdeaWheel</title>
<g id="a_node15"><a xlink:href="http://ideas.jnsq.us" xlink:title="IdeaWheel">
<ellipse fill="none" stroke="black" cx="652.651" cy="-374.779" rx="60.0369" ry="19.7049"/>
<text text-anchor="middle" x="652.651" y="-373.44" font-family="Antykwa Torunska" font-size="14.00">IdeaWheel</text>
</a>
</g>
</g>
<!-- JNSQ&#45;&gt;IdeaWheel -->
<g id="edge14" class="edge"><title>JNSQ&#45;&gt;IdeaWheel</title>
<path fill="none" stroke="black" d="M378.689,-319.473C429.518,-329.772 527.685,-349.662 591.396,-362.571"/>
<polygon fill="black" stroke="black" points="590.817,-366.024 601.313,-364.58 592.207,-359.164 590.817,-366.024"/>
</g>
<!-- Warren -->
<g id="node16" class="node"><title>Warren</title>
<g id="a_node16"><a xlink:href="https://warren.community" xlink:title="Warren">
<ellipse fill="none" stroke="black" cx="652.651" cy="-312.779" rx="46.1111" ry="19.7049"/>
<text text-anchor="middle" x="652.651" y="-311.44" font-family="Antykwa Torunska" font-size="14.00">Warren</text>
</a>
</g>
</g>
<!-- JNSQ&#45;&gt;Warren -->
<g id="edge15" class="edge"><title>JNSQ&#45;&gt;Warren</title>
<path fill="none" stroke="black" d="M381.052,-312.779C433.807,-312.779 533.533,-312.779 596.074,-312.779"/>
<polygon fill="black" stroke="black" points="596.159,-316.279 606.159,-312.779 596.159,-309.279 596.159,-316.279"/>
</g>
<!-- Trans Stock Photography -->
<g id="node17" class="node"><title>Trans Stock Photography</title>
<g id="a_node17"><a xlink:href="http://transstock.photography" xlink:title="Trans Stock Photography">
<ellipse fill="none" stroke="black" cx="652.651" cy="-249.779" rx="128.67" ry="19.7049"/>
<text text-anchor="middle" x="652.651" y="-248.44" font-family="Antykwa Torunska" font-size="14.00">Trans Stock Photography</text>
</a>
</g>
</g>
<!-- JNSQ&#45;&gt;Trans Stock Photography -->
<g id="edge16" class="edge"><title>JNSQ&#45;&gt;Trans Stock Photography</title>
<path fill="none" stroke="black" d="M378.689,-305.977C423.064,-296.841 503.517,-280.277 565.626,-267.49"/>
<polygon fill="black" stroke="black" points="566.339,-270.917 575.428,-265.472 564.928,-264.061 566.339,-270.917"/>
</g>
<!-- polycul.es -->
<g id="node18" class="node"><title>polycul.es</title>
<g id="a_node18"><a xlink:href="http://polycul.es" xlink:title="polycul.es">
<ellipse fill="none" stroke="black" cx="652.651" cy="-186.779" rx="55.3529" ry="19.7049"/>
<text text-anchor="middle" x="652.651" y="-185.44" font-family="Antykwa Torunska" font-size="14.00">polycul.es</text>
</a>
</g>
</g>
<!-- JNSQ&#45;&gt;polycul.es -->
<g id="edge17" class="edge"><title>JNSQ&#45;&gt;polycul.es</title>
<path fill="none" stroke="black" d="M380.69,-310.919C409.496,-307.836 450.134,-299.766 479.051,-278.779 503.749,-260.855 491.064,-238.65 515.801,-220.779 536.759,-205.638 563.749,-197.209 588.142,-192.529"/>
<polygon fill="black" stroke="black" points="588.804,-195.966 598.054,-190.8 587.601,-189.07 588.804,-195.966"/>
</g>
<!-- GitHub -->
<g id="node21" class="node"><title>GitHub</title>
<polygon fill="none" stroke="black" points="652.651,-142.724 590.899,-114.779 652.651,-86.8341 714.403,-114.779 652.651,-142.724"/>
<text text-anchor="middle" x="652.651" y="-113.44" font-family="Antykwa Torunska" font-size="14.00">GitHub</text>
</g>
<!-- IP accounts&#45;&gt;GitHub -->
<g id="edge20" class="edge"><title>IP accounts&#45;&gt;GitHub</title>
<path fill="none" stroke="black" d="M435.394,-114.779C481.597,-114.779 537.142,-114.779 580.369,-114.779"/>
<polygon fill="black" stroke="black" points="580.517,-118.279 590.517,-114.779 580.517,-111.279 580.517,-118.279"/>
</g>
<!-- Launchpad -->
<g id="node26" class="node"><title>Launchpad</title>
<g id="a_node26"><a xlink:href="https://launchpad.net/~makyo" xlink:title="Launchpad">
<ellipse fill="none" stroke="black" cx="652.651" cy="-43.7792" rx="60.7676" ry="19.7049"/>
<text text-anchor="middle" x="652.651" y="-42.4401" font-family="Antykwa Torunska" font-size="14.00">Launchpad</text>
</a>
</g>
</g>
<!-- IP accounts&#45;&gt;Launchpad -->
<g id="edge25" class="edge"><title>IP accounts&#45;&gt;Launchpad</title>
<path fill="none" stroke="black" d="M396.869,-102.895C450.958,-90.3454 536.107,-70.5886 592.89,-57.4134"/>
<polygon fill="black" stroke="black" points="593.848,-60.7841 602.798,-55.1143 592.266,-53.9652 593.848,-60.7841"/>
</g>
<!-- Makyo @ GitHub -->
<g id="node22" class="node"><title>Makyo @ GitHub</title>
<g id="a_node22"><a xlink:href="https://github.com/makyo" xlink:title="Makyo @ GitHub">
<ellipse fill="none" stroke="black" cx="935.651" cy="-209.779" rx="90.6095" ry="19.7049"/>
<text text-anchor="middle" x="935.651" y="-208.44" font-family="Antykwa Torunska" font-size="14.00">Makyo @ GitHub</text>
</a>
</g>
</g>
<!-- GitHub&#45;&gt;Makyo @ GitHub -->
<g id="edge21" class="edge"><title>GitHub&#45;&gt;Makyo @ GitHub</title>
<path fill="none" stroke="black" d="M691.699,-125.071C719.254,-132.945 757.183,-144.657 789.502,-157.779 806.037,-164.493 808.844,-169.106 825.396,-175.779 839.317,-181.392 854.539,-186.654 869.081,-191.283"/>
<polygon fill="black" stroke="black" points="868.427,-194.745 879.015,-194.383 870.512,-188.063 868.427,-194.745"/>
</g>
<!-- [a][s] @ GitHub -->
<g id="node23" class="node"><title>[a][s] @ GitHub</title>
<g id="a_node23"><a xlink:href="https://github.com/adjspecies" xlink:title="[a][s] @ GitHub">
<ellipse fill="none" stroke="black" cx="935.651" cy="-146.779" rx="79.7221" ry="19.7049"/>
<text text-anchor="middle" x="935.651" y="-145.44" font-family="Antykwa Torunska" font-size="14.00">[a][s] @ GitHub</text>
</a>
</g>
</g>
<!-- GitHub&#45;&gt;[a][s] @ GitHub -->
<g id="edge22" class="edge"><title>GitHub&#45;&gt;[a][s] @ GitHub</title>
<path fill="none" stroke="black" d="M702.277,-120.317C743.632,-125.026 803.899,-131.889 852.694,-137.446"/>
<polygon fill="black" stroke="black" points="852.589,-140.957 862.921,-138.611 853.381,-134.002 852.589,-140.957"/>
</g>
<!-- OpenFurry @ GitHub -->
<g id="node24" class="node"><title>OpenFurry @ GitHub</title>
<g id="a_node24"><a xlink:href="https://github.com/openfurry" xlink:title="OpenFurry @ GitHub">
<ellipse fill="none" stroke="black" cx="935.651" cy="-84.7792" rx="110.012" ry="19.7049"/>
<text text-anchor="middle" x="935.651" y="-83.4401" font-family="Antykwa Torunska" font-size="14.00">OpenFurry @ GitHub</text>
</a>
</g>
</g>
<!-- GitHub&#45;&gt;OpenFurry @ GitHub -->
<g id="edge23" class="edge"><title>GitHub&#45;&gt;OpenFurry @ GitHub</title>
<path fill="none" stroke="black" d="M702.919,-109.519C738.185,-105.754 786.96,-100.547 830.669,-95.8805"/>
<polygon fill="black" stroke="black" points="831.21,-99.3427 840.782,-94.8008 830.467,-92.3823 831.21,-99.3427"/>
</g>
<!-- Warren @ GitHub -->
<g id="node25" class="node"><title>Warren @ GitHub</title>
<g id="a_node25"><a xlink:href="https://github.com/warren-community" xlink:title="Warren @ GitHub">
<ellipse fill="none" stroke="black" cx="935.651" cy="-21.7792" rx="94.128" ry="19.7049"/>
<text text-anchor="middle" x="935.651" y="-20.4401" font-family="Antykwa Torunska" font-size="14.00">Warren @ GitHub</text>
</a>
</g>
</g>
<!-- GitHub&#45;&gt;Warren @ GitHub -->
<g id="edge24" class="edge"><title>GitHub&#45;&gt;Warren @ GitHub</title>
<path fill="none" stroke="black" d="M691.919,-104.526C719.415,-96.7794 757.178,-85.3567 789.502,-72.7792 805.952,-66.3783 808.952,-62.1954 825.396,-55.7792 839.304,-50.3524 854.463,-45.1815 868.939,-40.5841"/>
<polygon fill="black" stroke="black" points="870.326,-43.8179 878.828,-37.4968 868.239,-37.136 870.326,-43.8179"/>
</g>
</g>
</svg>
