<!-- Generated by graphviz version 2.38.0 (20140413.2041)
 -->
<!-- Title: agalmic_holdings Pages: 1 -->
<svg width="1159pt" height="214pt"
 viewBox="0.00 0.00 1159.16 213.85" xmlns="http://www.w3.org/2000/svg" xmlns:xlink="http://www.w3.org/1999/xlink">
<g id="graph0" class="graph" transform="scale(1 1) rotate(0) translate(4 209.852)">
<title>agalmic_holdings</title>
<polygon fill="white" stroke="none" points="-4,4 -4,-209.852 1155.16,-209.852 1155.16,4 -4,4"/>
<!-- agalmic.holdings -->
<g id="node1" class="node"><title>agalmic.holdings</title>
<g id="a_node1"><a xlink:href="http://agalmic.holdings" xlink:title="agalmic.holdings">
<ellipse fill="none" stroke="black" cx="565.278" cy="-186.25" rx="87.1392" ry="19.7049"/>
<text text-anchor="middle" x="565.278" y="-184.911" font-family="Antykwa Torunska" font-size="14.00">agalmic.holdings</text>
</a>
</g>
</g>
<!-- OpenFurry -->
<g id="node2" class="node"><title>OpenFurry</title>
<g id="a_node2"><a xlink:href="http://openfurry.org" xlink:title="OpenFurry">
<ellipse fill="none" stroke="black" cx="293.278" cy="-102.926" rx="62.4946" ry="19.7049"/>
<text text-anchor="middle" x="293.278" y="-101.587" font-family="Antykwa Torunska" font-size="14.00">OpenFurry</text>
</a>
</g>
</g>
<!-- agalmic.holdings&#45;&gt;OpenFurry -->
<g id="edge1" class="edge"><title>agalmic.holdings&#45;&gt;OpenFurry</title>
<path fill="none" stroke="black" d="M508.85,-171.273C468.569,-160.95 413.252,-146.065 365.278,-130.648 357.158,-128.038 348.601,-125.064 340.331,-122.071"/>
<polygon fill="black" stroke="black" points="341.393,-118.732 330.799,-118.569 338.979,-125.303 341.393,-118.732"/>
</g>
<!-- Drab Makyo -->
<g id="node6" class="node"><title>Drab Makyo</title>
<g id="a_node6"><a xlink:href="http://drab-makyo.com" xlink:title="Drab Makyo">
<ellipse fill="none" stroke="black" cx="442.278" cy="-102.926" rx="68.3004" ry="19.7049"/>
<text text-anchor="middle" x="442.278" y="-101.587" font-family="Antykwa Torunska" font-size="14.00">Drab Makyo</text>
</a>
</g>
</g>
<!-- agalmic.holdings&#45;&gt;Drab Makyo -->
<g id="edge5" class="edge"><title>agalmic.holdings&#45;&gt;Drab Makyo</title>
<path fill="none" stroke="black" d="M538.285,-167.403C520.256,-155.482 496.376,-139.694 476.943,-126.846"/>
<polygon fill="black" stroke="black" points="478.637,-123.769 468.365,-121.174 474.776,-129.608 478.637,-123.769"/>
</g>
<!-- JNSQ -->
<g id="node7" class="node"><title>JNSQ</title>
<g id="a_node7"><a xlink:href="http://jnsq.us" xlink:title="JNSQ">
<ellipse fill="none" stroke="black" cx="565.278" cy="-102.926" rx="36.2413" ry="19.7049"/>
<text text-anchor="middle" x="565.278" y="-101.587" font-family="Antykwa Torunska" font-size="14.00">JNSQ</text>
</a>
</g>
</g>
<!-- agalmic.holdings&#45;&gt;JNSQ -->
<g id="edge6" class="edge"><title>agalmic.holdings&#45;&gt;JNSQ</title>
<path fill="none" stroke="black" d="M565.278,-166.388C565.278,-156.432 565.278,-144 565.278,-132.855"/>
<polygon fill="black" stroke="black" points="568.778,-132.685 565.278,-122.686 561.778,-132.686 568.778,-132.685"/>
</g>
<!-- ARTEMIS PRODUCTIONS -->
<g id="node10" class="node"><title>ARTEMIS PRODUCTIONS</title>
<g id="a_node10"><a xlink:href="http://artemis.productions" xlink:title="ARTEMIS PRODUCTIONS">
<ellipse fill="none" stroke="black" cx="754.278" cy="-102.926" rx="134.3" ry="19.7049"/>
<text text-anchor="middle" x="754.278" y="-101.587" font-family="Antykwa Torunska" font-size="14.00">ARTEMIS PRODUCTIONS</text>
</a>
</g>
</g>
<!-- agalmic.holdings&#45;&gt;ARTEMIS PRODUCTIONS -->
<g id="edge9" class="edge"><title>agalmic.holdings&#45;&gt;ARTEMIS PRODUCTIONS</title>
<path fill="none" stroke="black" d="M603.981,-168.597C632.756,-156.215 672.283,-139.207 703.58,-125.741"/>
<polygon fill="black" stroke="black" points="705.205,-128.852 713.008,-121.684 702.439,-122.422 705.205,-128.852"/>
</g>
<!-- IP accounts -->
<g id="node11" class="node"><title>IP accounts</title>
<polygon fill="none" stroke="black" points="997.278,-130.871 906.823,-102.926 997.278,-74.9809 1087.73,-102.926 997.278,-130.871"/>
<text text-anchor="middle" x="997.278" y="-101.587" font-family="Antykwa Torunska" font-size="14.00">IP accounts</text>
</g>
<!-- agalmic.holdings&#45;&gt;IP accounts -->
<g id="edge10" class="edge"><title>agalmic.holdings&#45;&gt;IP accounts</title>
<path fill="none" stroke="black" d="M638.202,-175.358C705.728,-165.701 808.766,-149.704 897.278,-130.648 911.98,-127.482 927.757,-123.531 942.334,-119.646"/>
<polygon fill="black" stroke="black" points="943.466,-122.965 952.206,-116.977 941.639,-116.208 943.466,-122.965"/>
</g>
<!-- [adjective][species], Ltd. -->
<g id="node3" class="node"><title>[adjective][species], Ltd.</title>
<g id="a_node3"><a xlink:href="http://adjectivespecies.com" xlink:title="[adjective][species], Ltd.">
<ellipse fill="none" stroke="black" cx="116.278" cy="-19.6022" rx="116.057" ry="19.7049"/>
<text text-anchor="middle" x="116.278" y="-18.263" font-family="Antykwa Torunska" font-size="14.00">[adjective][species], Ltd.</text>
</a>
</g>
</g>
<!-- OpenFurry&#45;&gt;[adjective][species], Ltd. -->
<g id="edge2" class="edge"><title>OpenFurry&#45;&gt;[adjective][species], Ltd.</title>
<path fill="none" stroke="black" d="M259.569,-86.4382C232.39,-73.9507 193.845,-56.2408 163.577,-42.3339"/>
<polygon fill="black" stroke="black" points="165.019,-39.1448 154.471,-38.1501 162.097,-45.5055 165.019,-39.1448"/>
</g>
<!-- Hybrid -->
<g id="node4" class="node"><title>Hybrid</title>
<g id="a_node4"><a xlink:href="http://hybrid.ink" xlink:title="Hybrid">
<ellipse fill="none" stroke="black" cx="293.278" cy="-19.6022" rx="42.766" ry="19.7049"/>
<text text-anchor="middle" x="293.278" y="-18.263" font-family="Antykwa Torunska" font-size="14.00">Hybrid</text>
</a>
</g>
</g>
<!-- OpenFurry&#45;&gt;Hybrid -->
<g id="edge3" class="edge"><title>OpenFurry&#45;&gt;Hybrid</title>
<path fill="none" stroke="black" d="M293.278,-83.0643C293.278,-73.1081 293.278,-60.6763 293.278,-49.5307"/>
<polygon fill="black" stroke="black" points="296.778,-49.3616 293.278,-39.3616 289.778,-49.3617 296.778,-49.3616"/>
</g>
<!-- Characters -->
<g id="node5" class="node"><title>Characters</title>
<g id="a_node5"><a xlink:href="http://characters.openfurry.org" xlink:title="Characters">
<ellipse fill="none" stroke="black" cx="416.278" cy="-19.6022" rx="61.9795" ry="19.7049"/>
<text text-anchor="middle" x="416.278" y="-18.263" font-family="Antykwa Torunska" font-size="14.00">Characters</text>
</a>
</g>
</g>
<!-- OpenFurry&#45;&gt;Characters -->
<g id="edge4" class="edge"><title>OpenFurry&#45;&gt;Characters</title>
<path fill="none" stroke="black" d="M319.063,-84.8779C337.35,-72.7875 362.083,-56.4346 382.025,-43.2493"/>
<polygon fill="black" stroke="black" points="384.116,-46.0627 390.527,-37.6279 380.255,-40.2236 384.116,-46.0627"/>
</g>
<!-- Warren -->
<g id="node8" class="node"><title>Warren</title>
<g id="a_node8"><a xlink:href="https://warren.community" xlink:title="Warren">
<ellipse fill="none" stroke="black" cx="554.278" cy="-19.6022" rx="46.1111" ry="19.7049"/>
<text text-anchor="middle" x="554.278" y="-18.263" font-family="Antykwa Torunska" font-size="14.00">Warren</text>
</a>
</g>
</g>
<!-- JNSQ&#45;&gt;Warren -->
<g id="edge7" class="edge"><title>JNSQ&#45;&gt;Warren</title>
<path fill="none" stroke="black" d="M562.727,-83.0643C561.38,-73.1081 559.699,-60.6763 558.191,-49.5307"/>
<polygon fill="black" stroke="black" points="561.625,-48.8022 556.816,-39.3616 554.688,-49.7406 561.625,-48.8022"/>
</g>
<!-- Trans Stock Photography -->
<g id="node9" class="node"><title>Trans Stock Photography</title>
<g id="a_node9"><a xlink:href="transstock.photography" xlink:title="Trans Stock Photography">
<ellipse fill="none" stroke="black" cx="747.278" cy="-19.6022" rx="128.67" ry="19.7049"/>
<text text-anchor="middle" x="747.278" y="-18.263" font-family="Antykwa Torunska" font-size="14.00">Trans Stock Photography</text>
</a>
</g>
</g>
<!-- JNSQ&#45;&gt;Trans Stock Photography -->
<g id="edge8" class="edge"><title>JNSQ&#45;&gt;Trans Stock Photography</title>
<path fill="none" stroke="black" d="M588.324,-87.6655C595.554,-83.4302 603.642,-78.931 611.278,-75.2044 636.511,-62.8903 665.26,-51.0466 689.806,-41.556"/>
<polygon fill="black" stroke="black" points="691.254,-44.7496 699.341,-37.9053 688.751,-38.2124 691.254,-44.7496"/>
</g>
<!-- GitHub -->
<g id="node12" class="node"><title>GitHub</title>
<g id="a_node12"><a xlink:href="https://github.com/makyo" xlink:title="GitHub">
<ellipse fill="none" stroke="black" cx="967.278" cy="-19.6022" rx="43.5072" ry="19.7049"/>
<text text-anchor="middle" x="967.278" y="-18.263" font-family="Antykwa Torunska" font-size="14.00">GitHub</text>
</a>
</g>
</g>
<!-- IP accounts&#45;&gt;GitHub -->
<g id="edge11" class="edge"><title>IP accounts&#45;&gt;GitHub</title>
<path fill="none" stroke="black" d="M988.277,-77.5262C984.931,-68.4556 981.108,-58.0923 977.649,-48.7159"/>
<polygon fill="black" stroke="black" points="980.823,-47.2074 974.079,-39.0368 974.256,-49.6301 980.823,-47.2074"/>
</g>
<!-- Launchpad -->
<g id="node13" class="node"><title>Launchpad</title>
<g id="a_node13"><a xlink:href="https://launchpad.net/~makyo" xlink:title="Launchpad">
<ellipse fill="none" stroke="black" cx="1090.28" cy="-19.6022" rx="60.7676" ry="19.7049"/>
<text text-anchor="middle" x="1090.28" y="-18.263" font-family="Antykwa Torunska" font-size="14.00">Launchpad</text>
</a>
</g>
</g>
<!-- IP accounts&#45;&gt;Launchpad -->
<g id="edge12" class="edge"><title>IP accounts&#45;&gt;Launchpad</title>
<path fill="none" stroke="black" d="M1020.27,-81.8235C1033.04,-70.6569 1049.02,-56.6831 1062.48,-44.9063"/>
<polygon fill="black" stroke="black" points="1064.86,-47.4814 1070.08,-38.2639 1060.25,-42.2119 1064.86,-47.4814"/>
</g>
</g>
</svg>
