<!-- Generated by graphviz version 2.38.0 (20140413.2041)
 -->
<!-- Title: agalmic_holdings Pages: 1 -->
<svg width="540pt" height="504pt"
 viewBox="0.00 0.00 539.80 504.00" xmlns="http://www.w3.org/2000/svg" xmlns:xlink="http://www.w3.org/1999/xlink">
<g id="graph0" class="graph" transform="scale(0.579044 0.579044) rotate(0) translate(4 866.4)">
<title>agalmic_holdings</title>
<polygon fill="white" stroke="none" points="-4,4 -4,-866.4 928.229,-866.4 928.229,4 -4,4"/>
<g id="clust1" class="cluster"><title>cluster</title>
<polygon fill="none" stroke="black" points="8,-716.33 8,-802.803 650.83,-802.803 650.83,-716.33 8,-716.33"/>
<text text-anchor="middle" x="329.415" y="-787.603" font-family="Times,serif" font-size="14.00">Legend</text>
</g>
<!-- agalmic.holdings -->
<g id="node1" class="node"><title>agalmic.holdings</title>
<g id="a_node1"><a xlink:href="http://agalmic.holdings" xlink:title="agalmic.holdings">
<ellipse fill="none" stroke="black" cx="76.2291" cy="-242.207" rx="75.9588" ry="18"/>
<text text-anchor="middle" x="76.2291" y="-238.007" font-family="Antykwa Torunska" font-size="14.00">agalmic.holdings</text>
</a>
</g>
</g>
<!-- OpenFurry -->
<g id="node2" class="node"><title>OpenFurry</title>
<g id="a_node2"><a xlink:href="http://openfurry.org" xlink:title="OpenFurry">
<ellipse fill="none" stroke="black" cx="293.229" cy="-589.207" rx="52.245" ry="18"/>
<text text-anchor="middle" x="293.229" y="-585.007" font-family="Antykwa Torunska" font-size="14.00">OpenFurry</text>
</a>
</g>
</g>
<!-- agalmic.holdings&#45;&gt;OpenFurry -->
<g id="edge1" class="edge"><title>agalmic.holdings&#45;&gt;OpenFurry</title>
<path fill="none" stroke="black" d="M88.0662,-260.154C105.376,-288.784 140.384,-346.526 170.493,-395.207 207.707,-455.374 251.996,-525.617 275.55,-562.867"/>
<polygon fill="black" stroke="black" points="272.77,-565.02 281.074,-571.6 278.686,-561.278 272.77,-565.02"/>
</g>
<!-- JNSQ -->
<g id="node13" class="node"><title>JNSQ</title>
<g id="a_node13"><a xlink:href="http://jnsq.us" xlink:title="JNSQ">
<ellipse fill="none" stroke="black" cx="293.229" cy="-368.207" rx="33.8857" ry="18"/>
<text text-anchor="middle" x="293.229" y="-364.007" font-family="Antykwa Torunska" font-size="14.00">JNSQ</text>
</a>
</g>
</g>
<!-- agalmic.holdings&#45;&gt;JNSQ -->
<g id="edge15" class="edge"><title>agalmic.holdings&#45;&gt;JNSQ</title>
<path fill="none" stroke="black" d="M105.779,-258.938C146.112,-282.575 219.489,-325.578 261.152,-349.994"/>
<polygon fill="black" stroke="black" points="259.388,-353.017 269.785,-355.053 262.927,-346.978 259.388,-353.017"/>
</g>
<!-- Drab Makyo -->
<g id="node14" class="node"><title>Drab Makyo</title>
<g id="a_node14"><a xlink:href="http://drab-makyo.com" xlink:title="Drab Makyo">
<ellipse fill="none" stroke="black" cx="293.229" cy="-242.207" rx="57.5581" ry="18"/>
<text text-anchor="middle" x="293.229" y="-238.007" font-family="Antykwa Torunska" font-size="14.00">Drab Makyo</text>
</a>
</g>
</g>
<!-- agalmic.holdings&#45;&gt;Drab Makyo -->
<g id="edge12" class="edge"><title>agalmic.holdings&#45;&gt;Drab Makyo</title>
<path fill="none" stroke="black" d="M152.426,-242.207C176.159,-242.207 202.209,-242.207 225.324,-242.207"/>
<polygon fill="black" stroke="black" points="225.376,-245.707 235.376,-242.207 225.376,-238.707 225.376,-245.707"/>
</g>
<!-- ARTEMIS PRODUCTIONS -->
<g id="node20" class="node"><title>ARTEMIS PRODUCTIONS</title>
<g id="a_node20"><a xlink:href="http://artemis.productions" xlink:title="ARTEMIS PRODUCTIONS">
<ellipse fill="none" stroke="black" cx="293.229" cy="-179.207" rx="117.124" ry="18"/>
<text text-anchor="middle" x="293.229" y="-175.007" font-family="Antykwa Torunska" font-size="14.00">ARTEMIS PRODUCTIONS</text>
</a>
</g>
</g>
<!-- agalmic.holdings&#45;&gt;ARTEMIS PRODUCTIONS -->
<g id="edge19" class="edge"><title>agalmic.holdings&#45;&gt;ARTEMIS PRODUCTIONS</title>
<path fill="none" stroke="black" d="M124.678,-228.303C155.067,-219.398 194.883,-207.731 228.076,-198.005"/>
<polygon fill="black" stroke="black" points="229.084,-201.357 237.696,-195.186 227.116,-194.639 229.084,-201.357"/>
</g>
<!-- IP accounts -->
<g id="node21" class="node"><title>IP accounts</title>
<polygon fill="none" stroke="black" points="293.229,-133.207 213.886,-115.207 293.229,-97.2065 372.572,-115.207 293.229,-133.207"/>
<text text-anchor="middle" x="293.229" y="-111.007" font-family="Antykwa Torunska" font-size="14.00">IP accounts</text>
</g>
<!-- agalmic.holdings&#45;&gt;IP accounts -->
<g id="edge20" class="edge"><title>agalmic.holdings&#45;&gt;IP accounts</title>
<path fill="none" stroke="black" d="M91.1607,-224.403C107.921,-204.134 137.902,-171.36 170.493,-152.207 191.384,-139.929 216.724,-131.379 238.865,-125.617"/>
<polygon fill="black" stroke="black" points="239.918,-128.962 248.785,-123.163 238.237,-122.167 239.918,-128.962"/>
</g>
<!-- as -->
<g id="node3" class="node"><title>as</title>
<g id="a_node3"><a xlink:href="http://adjectivespecies.com" xlink:title="[adjective][species], Ltd.">
<ellipse fill="none" stroke="black" cx="549.229" cy="-683.207" rx="104.475" ry="18"/>
<text text-anchor="middle" x="549.229" y="-679.007" font-family="Antykwa Torunska" font-size="14.00">[adjective][species], Ltd.</text>
</a>
</g>
</g>
<!-- OpenFurry&#45;&gt;as -->
<g id="edge2" class="edge"><title>OpenFurry&#45;&gt;as</title>
<path fill="none" stroke="black" d="M326.134,-603.375C354.28,-615.648 396.547,-633.531 434.089,-647.207 450.736,-653.27 468.955,-659.288 485.854,-664.619"/>
<polygon fill="black" stroke="black" points="485.04,-668.031 495.629,-667.673 487.127,-661.35 485.04,-668.031"/>
</g>
<!-- Characters -->
<g id="node10" class="node"><title>Characters</title>
<g id="a_node10"><a xlink:href="http://characters.openfurry.org" xlink:title="Characters">
<ellipse fill="none" stroke="black" cx="549.229" cy="-620.207" rx="53.2142" ry="18"/>
<text text-anchor="middle" x="549.229" y="-616.007" font-family="Antykwa Torunska" font-size="14.00">Characters</text>
</a>
</g>
</g>
<!-- OpenFurry&#45;&gt;Characters -->
<g id="edge9" class="edge"><title>OpenFurry&#45;&gt;Characters</title>
<path fill="none" stroke="black" d="M342.902,-595.147C384.464,-600.219 444.388,-607.533 488.78,-612.951"/>
<polygon fill="black" stroke="black" points="488.504,-616.443 498.855,-614.18 489.352,-609.495 488.504,-616.443"/>
</g>
<!-- Honeycomb -->
<g id="node11" class="node"><title>Honeycomb</title>
<g id="a_node11"><a xlink:href="https://honeycomb.cafe" xlink:title="Honeycomb">
<ellipse fill="none" stroke="black" cx="549.229" cy="-557.207" rx="57.0907" ry="18"/>
<text text-anchor="middle" x="549.229" y="-553.007" font-family="Antykwa Torunska" font-size="14.00">Honeycomb</text>
</a>
</g>
</g>
<!-- OpenFurry&#45;&gt;Honeycomb -->
<g id="edge10" class="edge"><title>OpenFurry&#45;&gt;Honeycomb</title>
<path fill="none" stroke="black" d="M342.602,-583.112C383.197,-577.998 441.462,-570.657 485.613,-565.095"/>
<polygon fill="black" stroke="black" points="486.174,-568.552 495.658,-563.83 485.299,-561.607 486.174,-568.552"/>
</g>
<!-- [a][s] Blog -->
<g id="node4" class="node"><title>[a][s] Blog</title>
<g id="a_node4"><a xlink:href="http://adjectivespecies.com" xlink:title="[a][s] Blog">
<polygon fill="none" stroke="black" points="803.229,-859.207 733.415,-841.207 803.229,-823.207 873.043,-841.207 803.229,-859.207"/>
<text text-anchor="middle" x="803.229" y="-837.007" font-family="Antykwa Torunska" font-size="14.00">[a][s] Blog</text>
</a>
</g>
</g>
<!-- as&#45;&gt;[a][s] Blog -->
<g id="edge3" class="edge"><title>as&#45;&gt;[a][s] Blog</title>
<path fill="none" stroke="black" d="M636.003,-693.386C646.645,-697.793 656.521,-703.87 664.369,-712.207 693.212,-742.845 653.918,-773.964 682.105,-805.207 696.455,-821.112 717.521,-830.109 738.02,-835.159"/>
<polygon fill="black" stroke="black" points="737.49,-838.625 748.005,-837.333 738.979,-831.786 737.49,-838.625"/>
</g>
<!-- [a][s] Visualizations -->
<g id="node5" class="node"><title>[a][s] Visualizations</title>
<g id="a_node5"><a xlink:href="http://vis.adjectivespecies.com" xlink:title="[a][s] Visualizations">
<polygon fill="none" stroke="black" points="803.229,-796.207 681.981,-778.207 803.229,-760.207 924.477,-778.207 803.229,-796.207"/>
<text text-anchor="middle" x="803.229" y="-774.007" font-family="Antykwa Torunska" font-size="14.00">[a][s] Visualizations</text>
</a>
</g>
</g>
<!-- as&#45;&gt;[a][s] Visualizations -->
<g id="edge4" class="edge"><title>as&#45;&gt;[a][s] Visualizations</title>
<path fill="none" stroke="black" d="M629.751,-694.735C642.104,-698.898 654.141,-704.546 664.369,-712.207 676.767,-721.492 669.907,-732.661 682.105,-742.207 696.499,-753.471 714.371,-761.219 731.892,-766.545"/>
<polygon fill="black" stroke="black" points="730.991,-769.928 741.565,-769.262 732.884,-763.188 730.991,-769.928"/>
</g>
<!-- The Furry Poll -->
<g id="node6" class="node"><title>The Furry Poll</title>
<g id="a_node6"><a xlink:href="https://furrypoll.com" xlink:title="The Furry Poll">
<polygon fill="none" stroke="black" points="803.229,-733.207 710.578,-715.207 803.229,-697.207 895.88,-715.207 803.229,-733.207"/>
<text text-anchor="middle" x="803.229" y="-711.007" font-family="Antykwa Torunska" font-size="14.00">The Furry Poll</text>
</a>
</g>
</g>
<!-- as&#45;&gt;The Furry Poll -->
<g id="edge5" class="edge"><title>as&#45;&gt;The Furry Poll</title>
<path fill="none" stroke="black" d="M633.791,-693.818C667.275,-698.069 705.285,-702.896 736.714,-706.887"/>
<polygon fill="black" stroke="black" points="736.311,-710.364 746.673,-708.152 737.193,-703.42 736.311,-710.364"/>
</g>
<!-- Love ◦ Sex ◦ Fur -->
<g id="node7" class="node"><title>Love ◦ Sex ◦ Fur</title>
<g id="a_node7"><a xlink:href="http://lovesexfur.com" xlink:title="Love ◦ Sex ◦ Fur">
<polygon fill="none" stroke="black" points="803.229,-670.207 683.204,-652.207 803.229,-634.207 923.254,-652.207 803.229,-670.207"/>
<text text-anchor="middle" x="803.229" y="-649.384" font-family="Antykwa Torunska" font-size="14.00">Love ◦ Sex ◦ Fur</text>
</a>
</g>
</g>
<!-- as&#45;&gt;Love ◦ Sex ◦ Fur -->
<g id="edge6" class="edge"><title>as&#45;&gt;Love ◦ Sex ◦ Fur</title>
<path fill="none" stroke="black" d="M634.842,-672.798C664.516,-669.147 697.636,-665.073 726.532,-661.518"/>
<polygon fill="black" stroke="black" points="727.066,-664.979 736.564,-660.284 726.211,-658.032 727.066,-664.979"/>
</g>
<!-- LSF Guides -->
<g id="node8" class="node"><title>LSF Guides</title>
<g id="a_node8"><a xlink:href="http://guides.lovesexfur.com" xlink:title="LSF Guides">
<polygon fill="none" stroke="black" points="803.229,-607.207 723.066,-589.207 803.229,-571.207 883.392,-589.207 803.229,-607.207"/>
<text text-anchor="middle" x="803.229" y="-585.007" font-family="Antykwa Torunska" font-size="14.00">LSF Guides</text>
</a>
</g>
</g>
<!-- as&#45;&gt;LSF Guides -->
<g id="edge7" class="edge"><title>as&#45;&gt;LSF Guides</title>
<path fill="none" stroke="black" d="M616.64,-669.425C633.119,-664.131 650.125,-656.929 664.369,-647.207 674.743,-640.126 671.681,-632.212 682.105,-625.207 700.902,-612.574 724.257,-604.263 745.363,-598.848"/>
<polygon fill="black" stroke="black" points="746.288,-602.226 755.194,-596.488 744.653,-595.419 746.288,-602.226"/>
</g>
<!-- Hybrid -->
<g id="node9" class="node"><title>Hybrid</title>
<g id="a_node9"><a xlink:href="http://hybrid.ink" xlink:title="Hybrid">
<polygon fill="none" stroke="black" points="803.229,-544.207 752.864,-526.207 803.229,-508.207 853.595,-526.207 803.229,-544.207"/>
<text text-anchor="middle" x="803.229" y="-522.007" font-family="Antykwa Torunska" font-size="14.00">Hybrid</text>
</a>
</g>
</g>
<!-- as&#45;&gt;Hybrid -->
<g id="edge8" class="edge"><title>as&#45;&gt;Hybrid</title>
<path fill="none" stroke="black" d="M627.393,-671.116C641.284,-665.786 654.471,-658.146 664.369,-647.207 690.262,-618.591 656.007,-590.636 682.105,-562.207 699.174,-543.612 725.421,-534.476 749.031,-530.045"/>
<polygon fill="black" stroke="black" points="749.65,-533.491 758.953,-528.421 748.519,-526.583 749.65,-533.491"/>
</g>
<!-- IdeaWheel -->
<g id="node12" class="node"><title>IdeaWheel</title>
<g id="a_node12"><a xlink:href="http://ideas.openfurry.org" xlink:title="IdeaWheel">
<ellipse fill="none" stroke="black" cx="549.229" cy="-494.207" rx="52.2709" ry="18"/>
<text text-anchor="middle" x="549.229" y="-490.007" font-family="Antykwa Torunska" font-size="14.00">IdeaWheel</text>
</a>
</g>
</g>
<!-- JNSQ&#45;&gt;IdeaWheel -->
<g id="edge11" class="edge"><title>JNSQ&#45;&gt;IdeaWheel</title>
<path fill="none" stroke="black" d="M313.189,-382.757C339.229,-402.177 388.082,-436.623 434.089,-458.207 453.802,-467.455 476.502,-475.164 496.441,-481.044"/>
<polygon fill="black" stroke="black" points="495.705,-484.474 506.283,-483.867 497.635,-477.746 495.705,-484.474"/>
</g>
<!-- Warren -->
<g id="node17" class="node"><title>Warren</title>
<g id="a_node17"><a xlink:href="https://warren.community" xlink:title="Warren">
<ellipse fill="none" stroke="black" cx="549.229" cy="-431.207" rx="38.5507" ry="18"/>
<text text-anchor="middle" x="549.229" y="-427.007" font-family="Antykwa Torunska" font-size="14.00">Warren</text>
</a>
</g>
</g>
<!-- JNSQ&#45;&gt;Warren -->
<g id="edge16" class="edge"><title>JNSQ&#45;&gt;Warren</title>
<path fill="none" stroke="black" d="M324.113,-375.619C368.741,-386.688 453.055,-407.6 504.583,-420.381"/>
<polygon fill="black" stroke="black" points="503.881,-423.813 514.43,-422.823 505.566,-417.019 503.881,-423.813"/>
</g>
<!-- Trans Stock Photography -->
<g id="node18" class="node"><title>Trans Stock Photography</title>
<g id="a_node18"><a xlink:href="http://transstock.photography" xlink:title="Trans Stock Photography">
<ellipse fill="none" stroke="black" cx="549.229" cy="-368.207" rx="109.64" ry="18"/>
<text text-anchor="middle" x="549.229" y="-364.007" font-family="Antykwa Torunska" font-size="14.00">Trans Stock Photography</text>
</a>
</g>
</g>
<!-- JNSQ&#45;&gt;Trans Stock Photography -->
<g id="edge17" class="edge"><title>JNSQ&#45;&gt;Trans Stock Photography</title>
<path fill="none" stroke="black" d="M327.175,-368.207C353.482,-368.207 392.039,-368.207 429.613,-368.207"/>
<polygon fill="black" stroke="black" points="429.654,-371.707 439.654,-368.207 429.654,-364.707 429.654,-371.707"/>
</g>
<!-- polycul.es -->
<g id="node19" class="node"><title>polycul.es</title>
<g id="a_node19"><a xlink:href="http://polycul.es" xlink:title="polycul.es">
<ellipse fill="none" stroke="black" cx="549.229" cy="-305.207" rx="49.3636" ry="18"/>
<text text-anchor="middle" x="549.229" y="-301.007" font-family="Antykwa Torunska" font-size="14.00">polycul.es</text>
</a>
</g>
</g>
<!-- JNSQ&#45;&gt;polycul.es -->
<g id="edge18" class="edge"><title>JNSQ&#45;&gt;polycul.es</title>
<path fill="none" stroke="black" d="M324.113,-360.794C366.897,-350.183 446.155,-330.524 498.032,-317.657"/>
<polygon fill="black" stroke="black" points="499.16,-320.983 508.024,-315.179 497.475,-314.189 499.16,-320.983"/>
</g>
<!-- Writing | Drab Makyo -->
<g id="node15" class="node"><title>Writing | Drab Makyo</title>
<g id="a_node15"><a xlink:href="http://writing.drab-makyo.com" xlink:title="Writing | Drab Makyo">
<ellipse fill="none" stroke="black" cx="549.229" cy="-242.207" rx="92.1989" ry="18"/>
<text text-anchor="middle" x="549.229" y="-238.007" font-family="Antykwa Torunska" font-size="14.00">Writing | Drab Makyo</text>
</a>
</g>
</g>
<!-- Drab Makyo&#45;&gt;Writing | Drab Makyo -->
<g id="edge13" class="edge"><title>Drab Makyo&#45;&gt;Writing | Drab Makyo</title>
<path fill="none" stroke="black" d="M351.232,-242.207C379.212,-242.207 413.784,-242.207 446.116,-242.207"/>
<polygon fill="black" stroke="black" points="446.524,-245.707 456.524,-242.207 446.524,-238.707 446.524,-245.707"/>
</g>
<!-- Photography | Drab Makyo -->
<g id="node16" class="node"><title>Photography | Drab Makyo</title>
<g id="a_node16"><a xlink:href="http://makyo.photography" xlink:title="Photography | Drab Makyo">
<ellipse fill="none" stroke="black" cx="549.229" cy="-179.207" rx="115.281" ry="18"/>
<text text-anchor="middle" x="549.229" y="-175.007" font-family="Antykwa Torunska" font-size="14.00">Photography | Drab Makyo</text>
</a>
</g>
</g>
<!-- Drab Makyo&#45;&gt;Photography | Drab Makyo -->
<g id="edge14" class="edge"><title>Drab Makyo&#45;&gt;Photography | Drab Makyo</title>
<path fill="none" stroke="black" d="M339.054,-231.088C377.187,-221.63 432.641,-207.876 476.872,-196.905"/>
<polygon fill="black" stroke="black" points="477.839,-200.272 486.702,-194.467 476.154,-193.477 477.839,-200.272"/>
</g>
<!-- GitHub -->
<g id="node22" class="node"><title>GitHub</title>
<polygon fill="none" stroke="black" points="549.229,-133.207 495.793,-115.207 549.229,-97.2065 602.665,-115.207 549.229,-133.207"/>
<text text-anchor="middle" x="549.229" y="-111.007" font-family="Antykwa Torunska" font-size="14.00">GitHub</text>
</g>
<!-- IP accounts&#45;&gt;GitHub -->
<g id="edge21" class="edge"><title>IP accounts&#45;&gt;GitHub</title>
<path fill="none" stroke="black" d="M372.857,-115.207C409.035,-115.207 451.371,-115.207 485.382,-115.207"/>
<polygon fill="black" stroke="black" points="485.654,-118.707 495.654,-115.207 485.654,-111.707 485.654,-118.707"/>
</g>
<!-- Launchpad -->
<g id="node27" class="node"><title>Launchpad</title>
<g id="a_node27"><a xlink:href="https://launchpad.net/~makyo" xlink:title="Launchpad">
<polygon fill="none" stroke="black" points="592.019,-70.2065 506.44,-70.2065 506.44,-34.2065 592.019,-34.2065 592.019,-70.2065"/>
<text text-anchor="middle" x="549.229" y="-48.0065" font-family="Antykwa Torunska" font-size="14.00">Launchpad</text>
</a>
</g>
</g>
<!-- IP accounts&#45;&gt;Launchpad -->
<g id="edge26" class="edge"><title>IP accounts&#45;&gt;Launchpad</title>
<path fill="none" stroke="black" d="M331.708,-105.911C375.344,-95.0874 447.67,-77.1483 496.603,-65.0114"/>
<polygon fill="black" stroke="black" points="497.503,-68.3943 506.366,-62.5898 495.818,-61.6002 497.503,-68.3943"/>
</g>
<!-- Makyo @ GitHub -->
<g id="node23" class="node"><title>Makyo @ GitHub</title>
<g id="a_node23"><a xlink:href="https://github.com/makyo" xlink:title="Makyo @ GitHub">
<polygon fill="none" stroke="black" points="864.527,-228.207 741.931,-228.207 741.931,-192.207 864.527,-192.207 864.527,-228.207"/>
<text text-anchor="middle" x="803.229" y="-206.007" font-family="Antykwa Torunska" font-size="14.00">Makyo @ GitHub</text>
</a>
</g>
</g>
<!-- GitHub&#45;&gt;Makyo @ GitHub -->
<g id="edge22" class="edge"><title>GitHub&#45;&gt;Makyo @ GitHub</title>
<path fill="none" stroke="black" d="M585.273,-121.096C609.145,-126.359 640.605,-135.847 664.369,-152.207 674.715,-159.328 671.681,-167.201 682.105,-174.207 696.908,-184.155 714.538,-191.423 731.67,-196.707"/>
<polygon fill="black" stroke="black" points="731.096,-200.184 741.674,-199.595 733.037,-193.459 731.096,-200.184"/>
</g>
<!-- [a][s] @ GitHub -->
<g id="node24" class="node"><title>[a][s] @ GitHub</title>
<g id="a_node24"><a xlink:href="https://github.com/adjspecies" xlink:title="[a][s] @ GitHub">
<polygon fill="none" stroke="black" points="859.137,-165.207 747.321,-165.207 747.321,-129.207 859.137,-129.207 859.137,-165.207"/>
<text text-anchor="middle" x="803.229" y="-143.007" font-family="Antykwa Torunska" font-size="14.00">[a][s] @ GitHub</text>
</a>
</g>
</g>
<!-- GitHub&#45;&gt;[a][s] @ GitHub -->
<g id="edge23" class="edge"><title>GitHub&#45;&gt;[a][s] @ GitHub</title>
<path fill="none" stroke="black" d="M588.502,-120.067C627.883,-125.067 689.961,-132.95 737.089,-138.935"/>
<polygon fill="black" stroke="black" points="736.845,-142.432 747.206,-140.219 737.727,-135.488 736.845,-142.432"/>
</g>
<!-- OpenFurry @ GitHub -->
<g id="node25" class="node"><title>OpenFurry @ GitHub</title>
<g id="a_node25"><a xlink:href="https://github.com/openfurry" xlink:title="OpenFurry @ GitHub">
<polygon fill="none" stroke="black" points="877.703,-102.207 728.755,-102.207 728.755,-66.2065 877.703,-66.2065 877.703,-102.207"/>
<text text-anchor="middle" x="803.229" y="-80.0065" font-family="Antykwa Torunska" font-size="14.00">OpenFurry @ GitHub</text>
</a>
</g>
</g>
<!-- GitHub&#45;&gt;OpenFurry @ GitHub -->
<g id="edge24" class="edge"><title>GitHub&#45;&gt;OpenFurry @ GitHub</title>
<path fill="none" stroke="black" d="M588.777,-110.465C623.249,-106.224 674.955,-99.8633 718.842,-94.4644"/>
<polygon fill="black" stroke="black" points="719.446,-97.9166 728.944,-93.2218 718.591,-90.969 719.446,-97.9166"/>
</g>
<!-- Warren @ GitHub -->
<g id="node26" class="node"><title>Warren @ GitHub</title>
<g id="a_node26"><a xlink:href="https://github.com/warren-community" xlink:title="Warren @ GitHub">
<polygon fill="none" stroke="black" points="866.676,-39.2065 739.782,-39.2065 739.782,-3.2065 866.676,-3.2065 866.676,-39.2065"/>
<text text-anchor="middle" x="803.229" y="-17.0065" font-family="Antykwa Torunska" font-size="14.00">Warren @ GitHub</text>
</a>
</g>
</g>
<!-- GitHub&#45;&gt;Warren @ GitHub -->
<g id="edge25" class="edge"><title>GitHub&#45;&gt;Warren @ GitHub</title>
<path fill="none" stroke="black" d="M586.049,-109.505C609.822,-104.436 640.858,-95.2543 664.369,-79.2065 674.743,-72.1262 671.681,-64.2122 682.105,-57.2065 696.379,-47.6131 713.282,-40.5124 729.833,-35.2795"/>
<polygon fill="black" stroke="black" points="730.921,-38.6075 739.514,-32.4095 728.932,-31.8961 730.921,-38.6075"/>
</g>
<!-- Organization -->
<g id="node28" class="node"><title>Organization</title>
<ellipse fill="none" stroke="black" cx="76.2291" cy="-747.207" rx="60.4982" ry="18"/>
<text text-anchor="middle" x="76.2291" y="-743.007" font-family="Antykwa Torunska" font-size="14.00">Organization</text>
</g>
<!-- Collection of assets -->
<g id="node29" class="node"><title>Collection of assets</title>
<polygon fill="none" stroke="black" points="293.229,-765.207 170.256,-747.207 293.229,-729.207 416.202,-747.207 293.229,-765.207"/>
<text text-anchor="middle" x="293.229" y="-743.007" font-family="Antykwa Torunska" font-size="14.00">Collection of assets</text>
</g>
<!-- Organization&#45;&gt;Collection of assets -->
<!-- Account on external service -->
<g id="node30" class="node"><title>Account on external service</title>
<polygon fill="none" stroke="black" points="643.208,-765.207 455.251,-765.207 455.251,-729.207 643.208,-729.207 643.208,-765.207"/>
<text text-anchor="middle" x="549.229" y="-743.007" font-family="Antykwa Torunska" font-size="14.00">Account on external service</text>
</g>
<!-- Collection of assets&#45;&gt;Account on external service -->
</g>
</svg>
