<!-- Generated by graphviz version 2.38.0 (20140413.2041)
 -->
<!-- Title: agalmic_holdings Pages: 1 -->
<svg width="1279pt" height="214pt"
 viewBox="0.00 0.00 1279.16 213.85" xmlns="http://www.w3.org/2000/svg" xmlns:xlink="http://www.w3.org/1999/xlink">
<g id="graph0" class="graph" transform="scale(1 1) rotate(0) translate(4 209.852)">
<title>agalmic_holdings</title>
<polygon fill="white" stroke="none" points="-4,4 -4,-209.852 1275.16,-209.852 1275.16,4 -4,4"/>
<!-- agalmic.holdings -->
<g id="node1" class="node"><title>agalmic.holdings</title>
<g id="a_node1"><a xlink:href="http://agalmic.holdings" xlink:title="agalmic.holdings">
<ellipse fill="none" stroke="black" cx="667.278" cy="-186.25" rx="87.1392" ry="19.7049"/>
<text text-anchor="middle" x="667.278" y="-184.911" font-family="Antykwa Torunska" font-size="14.00">agalmic.holdings</text>
</a>
</g>
</g>
<!-- OpenFurry -->
<g id="node2" class="node"><title>OpenFurry</title>
<g id="a_node2"><a xlink:href="http://openfurry.org" xlink:title="OpenFurry">
<ellipse fill="none" stroke="black" cx="338.278" cy="-102.926" rx="62.4946" ry="19.7049"/>
<text text-anchor="middle" x="338.278" y="-101.587" font-family="Antykwa Torunska" font-size="14.00">OpenFurry</text>
</a>
</g>
</g>
<!-- agalmic.holdings&#45;&gt;OpenFurry -->
<g id="edge1" class="edge"><title>agalmic.holdings&#45;&gt;OpenFurry</title>
<path fill="none" stroke="black" d="M610.721,-171.27C550.592,-156.407 456.014,-133.029 395.597,-118.094"/>
<polygon fill="black" stroke="black" points="396.383,-114.683 385.836,-115.682 394.704,-121.479 396.383,-114.683"/>
</g>
<!-- Drab Makyo -->
<g id="node6" class="node"><title>Drab Makyo</title>
<g id="a_node6"><a xlink:href="http://drab-makyo.com" xlink:title="Drab Makyo">
<ellipse fill="none" stroke="black" cx="544.278" cy="-102.926" rx="68.3004" ry="19.7049"/>
<text text-anchor="middle" x="544.278" y="-101.587" font-family="Antykwa Torunska" font-size="14.00">Drab Makyo</text>
</a>
</g>
</g>
<!-- agalmic.holdings&#45;&gt;Drab Makyo -->
<g id="edge5" class="edge"><title>agalmic.holdings&#45;&gt;Drab Makyo</title>
<path fill="none" stroke="black" d="M640.285,-167.403C622.256,-155.482 598.376,-139.694 578.943,-126.846"/>
<polygon fill="black" stroke="black" points="580.637,-123.769 570.365,-121.174 576.776,-129.608 580.637,-123.769"/>
</g>
<!-- JNSQ -->
<g id="node7" class="node"><title>JNSQ</title>
<g id="a_node7"><a xlink:href="http://jnsq.us" xlink:title="JNSQ">
<ellipse fill="none" stroke="black" cx="667.278" cy="-102.926" rx="36.2413" ry="19.7049"/>
<text text-anchor="middle" x="667.278" y="-101.587" font-family="Antykwa Torunska" font-size="14.00">JNSQ</text>
</a>
</g>
</g>
<!-- agalmic.holdings&#45;&gt;JNSQ -->
<g id="edge6" class="edge"><title>agalmic.holdings&#45;&gt;JNSQ</title>
<path fill="none" stroke="black" d="M667.278,-166.388C667.278,-156.432 667.278,-144 667.278,-132.855"/>
<polygon fill="black" stroke="black" points="670.778,-132.685 667.278,-122.686 663.778,-132.686 670.778,-132.685"/>
</g>
<!-- ARTEMIS PRODUCTIONS -->
<g id="node11" class="node"><title>ARTEMIS PRODUCTIONS</title>
<g id="a_node11"><a xlink:href="http://artemis.productions" xlink:title="ARTEMIS PRODUCTIONS">
<ellipse fill="none" stroke="black" cx="856.278" cy="-102.926" rx="134.3" ry="19.7049"/>
<text text-anchor="middle" x="856.278" y="-101.587" font-family="Antykwa Torunska" font-size="14.00">ARTEMIS PRODUCTIONS</text>
</a>
</g>
</g>
<!-- agalmic.holdings&#45;&gt;ARTEMIS PRODUCTIONS -->
<g id="edge10" class="edge"><title>agalmic.holdings&#45;&gt;ARTEMIS PRODUCTIONS</title>
<path fill="none" stroke="black" d="M705.981,-168.597C734.756,-156.215 774.283,-139.207 805.58,-125.741"/>
<polygon fill="black" stroke="black" points="807.205,-128.852 815.008,-121.684 804.439,-122.422 807.205,-128.852"/>
</g>
<!-- IP accounts -->
<g id="node12" class="node"><title>IP accounts</title>
<polygon fill="none" stroke="black" points="1099.28,-130.871 1008.82,-102.926 1099.28,-74.9809 1189.73,-102.926 1099.28,-130.871"/>
<text text-anchor="middle" x="1099.28" y="-101.587" font-family="Antykwa Torunska" font-size="14.00">IP accounts</text>
</g>
<!-- agalmic.holdings&#45;&gt;IP accounts -->
<g id="edge11" class="edge"><title>agalmic.holdings&#45;&gt;IP accounts</title>
<path fill="none" stroke="black" d="M740.202,-175.358C807.728,-165.701 910.766,-149.704 999.278,-130.648 1013.98,-127.482 1029.76,-123.531 1044.33,-119.646"/>
<polygon fill="black" stroke="black" points="1045.47,-122.965 1054.21,-116.977 1043.64,-116.208 1045.47,-122.965"/>
</g>
<!-- [adjective][species], Ltd. -->
<g id="node3" class="node"><title>[adjective][species], Ltd.</title>
<g id="a_node3"><a xlink:href="http://adjectivespecies.com" xlink:title="[adjective][species], Ltd.">
<ellipse fill="none" stroke="black" cx="116.278" cy="-19.6022" rx="116.057" ry="19.7049"/>
<text text-anchor="middle" x="116.278" y="-18.263" font-family="Antykwa Torunska" font-size="14.00">[adjective][species], Ltd.</text>
</a>
</g>
</g>
<!-- OpenFurry&#45;&gt;[adjective][species], Ltd. -->
<g id="edge2" class="edge"><title>OpenFurry&#45;&gt;[adjective][species], Ltd.</title>
<path fill="none" stroke="black" d="M299.1,-87.5742C263.912,-74.6839 211.848,-55.6115 172.27,-41.1133"/>
<polygon fill="black" stroke="black" points="173.345,-37.7797 162.751,-37.6263 170.937,-44.3525 173.345,-37.7797"/>
</g>
<!-- Hybrid -->
<g id="node4" class="node"><title>Hybrid</title>
<g id="a_node4"><a xlink:href="http://hybrid.ink" xlink:title="Hybrid">
<ellipse fill="none" stroke="black" cx="293.278" cy="-19.6022" rx="42.766" ry="19.7049"/>
<text text-anchor="middle" x="293.278" y="-18.263" font-family="Antykwa Torunska" font-size="14.00">Hybrid</text>
</a>
</g>
</g>
<!-- OpenFurry&#45;&gt;Hybrid -->
<g id="edge3" class="edge"><title>OpenFurry&#45;&gt;Hybrid</title>
<path fill="none" stroke="black" d="M328.067,-83.4724C322.215,-72.8967 314.763,-59.4298 308.259,-47.6749"/>
<polygon fill="black" stroke="black" points="311.198,-45.7579 303.294,-38.7027 305.073,-49.147 311.198,-45.7579"/>
</g>
<!-- Characters -->
<g id="node5" class="node"><title>Characters</title>
<g id="a_node5"><a xlink:href="http://characters.openfurry.org" xlink:title="Characters">
<ellipse fill="none" stroke="black" cx="416.278" cy="-19.6022" rx="61.9795" ry="19.7049"/>
<text text-anchor="middle" x="416.278" y="-18.263" font-family="Antykwa Torunska" font-size="14.00">Characters</text>
</a>
</g>
</g>
<!-- OpenFurry&#45;&gt;Characters -->
<g id="edge4" class="edge"><title>OpenFurry&#45;&gt;Characters</title>
<path fill="none" stroke="black" d="M355.589,-83.8777C366.293,-72.7172 380.194,-58.2242 391.99,-45.9251"/>
<polygon fill="black" stroke="black" points="394.62,-48.2399 399.016,-38.6001 389.568,-43.3945 394.62,-48.2399"/>
</g>
<!-- IdeaWheel -->
<g id="node8" class="node"><title>IdeaWheel</title>
<g id="a_node8"><a xlink:href="http://ideas.jnsq.us" xlink:title="IdeaWheel">
<ellipse fill="none" stroke="black" cx="556.278" cy="-19.6022" rx="60.0369" ry="19.7049"/>
<text text-anchor="middle" x="556.278" y="-18.263" font-family="Antykwa Torunska" font-size="14.00">IdeaWheel</text>
</a>
</g>
</g>
<!-- JNSQ&#45;&gt;IdeaWheel -->
<g id="edge7" class="edge"><title>JNSQ&#45;&gt;IdeaWheel</title>
<path fill="none" stroke="black" d="M646.66,-86.8202C630.241,-74.7905 606.971,-57.7422 588.155,-43.9568"/>
<polygon fill="black" stroke="black" points="589.999,-40.969 579.864,-37.8823 585.862,-46.6157 589.999,-40.969"/>
</g>
<!-- Warren -->
<g id="node9" class="node"><title>Warren</title>
<g id="a_node9"><a xlink:href="https://warren.community" xlink:title="Warren">
<ellipse fill="none" stroke="black" cx="680.278" cy="-19.6022" rx="46.1111" ry="19.7049"/>
<text text-anchor="middle" x="680.278" y="-18.263" font-family="Antykwa Torunska" font-size="14.00">Warren</text>
</a>
</g>
</g>
<!-- JNSQ&#45;&gt;Warren -->
<g id="edge8" class="edge"><title>JNSQ&#45;&gt;Warren</title>
<path fill="none" stroke="black" d="M670.293,-83.0643C671.885,-73.1081 673.872,-60.6763 675.654,-49.5307"/>
<polygon fill="black" stroke="black" points="679.157,-49.7888 677.28,-39.3616 672.245,-48.6838 679.157,-49.7888"/>
</g>
<!-- Trans Stock Photography -->
<g id="node10" class="node"><title>Trans Stock Photography</title>
<g id="a_node10"><a xlink:href="transstock.photography" xlink:title="Trans Stock Photography">
<ellipse fill="none" stroke="black" cx="873.278" cy="-19.6022" rx="128.67" ry="19.7049"/>
<text text-anchor="middle" x="873.278" y="-18.263" font-family="Antykwa Torunska" font-size="14.00">Trans Stock Photography</text>
</a>
</g>
</g>
<!-- JNSQ&#45;&gt;Trans Stock Photography -->
<g id="edge9" class="edge"><title>JNSQ&#45;&gt;Trans Stock Photography</title>
<path fill="none" stroke="black" d="M690.206,-87.4151C697.431,-83.1697 705.546,-78.7277 713.278,-75.2044 742.913,-61.7003 776.916,-49.6448 805.934,-40.3191"/>
<polygon fill="black" stroke="black" points="807.096,-43.6224 815.57,-37.2629 804.98,-36.9499 807.096,-43.6224"/>
</g>
<!-- GitHub -->
<g id="node13" class="node"><title>GitHub</title>
<g id="a_node13"><a xlink:href="https://github.com/makyo" xlink:title="GitHub">
<ellipse fill="none" stroke="black" cx="1087.28" cy="-19.6022" rx="43.5072" ry="19.7049"/>
<text text-anchor="middle" x="1087.28" y="-18.263" font-family="Antykwa Torunska" font-size="14.00">GitHub</text>
</a>
</g>
</g>
<!-- IP accounts&#45;&gt;GitHub -->
<g id="edge12" class="edge"><title>IP accounts&#45;&gt;GitHub</title>
<path fill="none" stroke="black" d="M1095.42,-75.747C1094.17,-67.2963 1092.78,-57.8855 1091.51,-49.265"/>
<polygon fill="black" stroke="black" points="1094.95,-48.6415 1090.03,-39.2595 1088.03,-49.6634 1094.95,-48.6415"/>
</g>
<!-- Launchpad -->
<g id="node14" class="node"><title>Launchpad</title>
<g id="a_node14"><a xlink:href="https://launchpad.net/~makyo" xlink:title="Launchpad">
<ellipse fill="none" stroke="black" cx="1210.28" cy="-19.6022" rx="60.7676" ry="19.7049"/>
<text text-anchor="middle" x="1210.28" y="-18.263" font-family="Antykwa Torunska" font-size="14.00">Launchpad</text>
</a>
</g>
</g>
<!-- IP accounts&#45;&gt;Launchpad -->
<g id="edge13" class="edge"><title>IP accounts&#45;&gt;Launchpad</title>
<path fill="none" stroke="black" d="M1125.3,-82.8592C1141.13,-71.2655 1161.46,-56.3722 1178.26,-44.0594"/>
<polygon fill="black" stroke="black" points="1180.69,-46.6204 1186.69,-37.887 1176.55,-40.9737 1180.69,-46.6204"/>
</g>
</g>
</svg>
