<!-- Generated by graphviz version 2.38.0 (20140413.2041)
 -->
<!-- Title: agalmic_holdings Pages: 1 -->
<svg width="1054pt" height="767pt"
 viewBox="0.00 0.00 1053.65 767.20" xmlns="http://www.w3.org/2000/svg" xmlns:xlink="http://www.w3.org/1999/xlink">
<g id="graph0" class="graph" transform="scale(1 1) rotate(0) translate(4 763.204)">
<title>agalmic_holdings</title>
<polygon fill="white" stroke="none" points="-4,4 -4,-763.204 1049.65,-763.204 1049.65,4 -4,4"/>
<!-- agalmic.holdings -->
<g id="node1" class="node"><title>agalmic.holdings</title>
<g id="a_node1"><a xlink:href="http://agalmic.holdings" xlink:title="agalmic.holdings">
<ellipse fill="none" stroke="black" cx="87.3194" cy="-283.602" rx="87.1392" ry="19.7049"/>
<text text-anchor="middle" x="87.3194" y="-282.263" font-family="Antykwa Torunska" font-size="14.00">agalmic.holdings</text>
</a>
</g>
</g>
<!-- OpenFurry -->
<g id="node2" class="node"><title>OpenFurry</title>
<g id="a_node2"><a xlink:href="http://openfurry.org" xlink:title="OpenFurry">
<ellipse fill="none" stroke="black" cx="345.039" cy="-539.602" rx="62.4946" ry="19.7049"/>
<text text-anchor="middle" x="345.039" y="-538.263" font-family="Antykwa Torunska" font-size="14.00">OpenFurry</text>
</a>
</g>
</g>
<!-- agalmic.holdings&#45;&gt;OpenFurry -->
<g id="edge1" class="edge"><title>agalmic.holdings&#45;&gt;OpenFurry</title>
<path fill="none" stroke="black" d="M103.239,-302.961C125.417,-331.275 168.957,-385.121 210.639,-426.602 243.393,-459.199 284.371,-492.992 312.206,-515.028"/>
<polygon fill="black" stroke="black" points="310.376,-518.042 320.399,-521.475 314.705,-512.541 310.376,-518.042"/>
</g>
<!-- Drab Makyo -->
<g id="node11" class="node"><title>Drab Makyo</title>
<g id="a_node11"><a xlink:href="http://drab-makyo.com" xlink:title="Drab Makyo">
<ellipse fill="none" stroke="black" cx="345.039" cy="-397.602" rx="68.3004" ry="19.7049"/>
<text text-anchor="middle" x="345.039" y="-396.263" font-family="Antykwa Torunska" font-size="14.00">Drab Makyo</text>
</a>
</g>
</g>
<!-- agalmic.holdings&#45;&gt;Drab Makyo -->
<g id="edge10" class="edge"><title>agalmic.holdings&#45;&gt;Drab Makyo</title>
<path fill="none" stroke="black" d="M127.436,-301.04C173.213,-321.448 248.938,-355.206 297.641,-376.918"/>
<polygon fill="black" stroke="black" points="296.445,-380.217 307.004,-381.092 299.296,-373.823 296.445,-380.217"/>
</g>
<!-- JNSQ -->
<g id="node14" class="node"><title>JNSQ</title>
<g id="a_node14"><a xlink:href="http://jnsq.us" xlink:title="JNSQ">
<ellipse fill="none" stroke="black" cx="345.039" cy="-283.602" rx="36.2413" ry="19.7049"/>
<text text-anchor="middle" x="345.039" y="-282.263" font-family="Antykwa Torunska" font-size="14.00">JNSQ</text>
</a>
</g>
</g>
<!-- agalmic.holdings&#45;&gt;JNSQ -->
<g id="edge13" class="edge"><title>agalmic.holdings&#45;&gt;JNSQ</title>
<path fill="none" stroke="black" d="M174.894,-283.602C216.389,-283.602 264.381,-283.602 298.622,-283.602"/>
<polygon fill="black" stroke="black" points="298.784,-287.102 308.784,-283.602 298.784,-280.102 298.784,-287.102"/>
</g>
<!-- ARTEMIS PRODUCTIONS -->
<g id="node19" class="node"><title>ARTEMIS PRODUCTIONS</title>
<g id="a_node19"><a xlink:href="http://artemis.productions" xlink:title="ARTEMIS PRODUCTIONS">
<ellipse fill="none" stroke="black" cx="345.039" cy="-226.602" rx="134.3" ry="19.7049"/>
<text text-anchor="middle" x="345.039" y="-225.263" font-family="Antykwa Torunska" font-size="14.00">ARTEMIS PRODUCTIONS</text>
</a>
</g>
</g>
<!-- agalmic.holdings&#45;&gt;ARTEMIS PRODUCTIONS -->
<g id="edge18" class="edge"><title>agalmic.holdings&#45;&gt;ARTEMIS PRODUCTIONS</title>
<path fill="none" stroke="black" d="M147.353,-269.28C167.413,-264.5 189.978,-259.219 210.639,-254.602 225.416,-251.3 241.14,-247.9 256.414,-244.656"/>
<polygon fill="black" stroke="black" points="257.312,-248.044 266.372,-242.55 255.864,-241.195 257.312,-248.044"/>
</g>
<!-- IP accounts -->
<g id="node20" class="node"><title>IP accounts</title>
<polygon fill="none" stroke="black" points="345.039,-132.547 254.584,-104.602 345.039,-76.657 435.494,-104.602 345.039,-132.547"/>
<text text-anchor="middle" x="345.039" y="-103.263" font-family="Antykwa Torunska" font-size="14.00">IP accounts</text>
</g>
<!-- agalmic.holdings&#45;&gt;IP accounts -->
<g id="edge19" class="edge"><title>agalmic.holdings&#45;&gt;IP accounts</title>
<path fill="none" stroke="black" d="M115.023,-264.782C139.789,-247.338 177.677,-220.679 210.639,-197.602 243.612,-174.517 281.233,-148.301 308.099,-129.601"/>
<polygon fill="black" stroke="black" points="310.215,-132.392 316.424,-123.807 306.216,-126.646 310.215,-132.392"/>
</g>
<!-- as -->
<g id="node3" class="node"><title>as</title>
<g id="a_node3"><a xlink:href="http://adjectivespecies.com" xlink:title="[adjective][species], Ltd.">
<ellipse fill="none" stroke="black" cx="652.29" cy="-625.602" rx="116.057" ry="19.7049"/>
<text text-anchor="middle" x="652.29" y="-624.263" font-family="Antykwa Torunska" font-size="14.00">[adjective][species], Ltd.</text>
</a>
</g>
</g>
<!-- OpenFurry&#45;&gt;as -->
<g id="edge2" class="edge"><title>OpenFurry&#45;&gt;as</title>
<path fill="none" stroke="black" d="M385.302,-554.63C419.357,-567.28 470.157,-585.237 515.439,-597.602 530.733,-601.778 547.145,-605.659 563.089,-609.119"/>
<polygon fill="black" stroke="black" points="562.432,-612.557 572.942,-611.218 563.891,-605.711 562.432,-612.557"/>
</g>
<!-- Hybrid -->
<g id="node9" class="node"><title>Hybrid</title>
<g id="a_node9"><a xlink:href="http://hybrid.ink" xlink:title="Hybrid">
<ellipse fill="none" stroke="black" cx="652.29" cy="-568.602" rx="42.766" ry="19.7049"/>
<text text-anchor="middle" x="652.29" y="-567.263" font-family="Antykwa Torunska" font-size="14.00">Hybrid</text>
</a>
</g>
</g>
<!-- OpenFurry&#45;&gt;Hybrid -->
<g id="edge8" class="edge"><title>OpenFurry&#45;&gt;Hybrid</title>
<path fill="none" stroke="black" d="M404.894,-545.194C461.534,-550.575 546.303,-558.628 600.184,-563.747"/>
<polygon fill="black" stroke="black" points="599.915,-567.237 610.201,-564.699 600.577,-560.268 599.915,-567.237"/>
</g>
<!-- Characters -->
<g id="node10" class="node"><title>Characters</title>
<g id="a_node10"><a xlink:href="http://characters.openfurry.org" xlink:title="Characters">
<ellipse fill="none" stroke="black" cx="652.29" cy="-511.602" rx="61.9795" ry="19.7049"/>
<text text-anchor="middle" x="652.29" y="-510.263" font-family="Antykwa Torunska" font-size="14.00">Characters</text>
</a>
</g>
</g>
<!-- OpenFurry&#45;&gt;Characters -->
<g id="edge9" class="edge"><title>OpenFurry&#45;&gt;Characters</title>
<path fill="none" stroke="black" d="M404.894,-534.204C455.756,-529.538 529.3,-522.792 582.793,-517.885"/>
<polygon fill="black" stroke="black" points="583.236,-521.359 592.874,-516.961 582.596,-514.389 583.236,-521.359"/>
</g>
<!-- [a][s] Blog -->
<g id="node4" class="node"><title>[a][s] Blog</title>
<g id="a_node4"><a xlink:href="http://adjectivespecies.com" xlink:title="[a][s] Blog">
<ellipse fill="none" stroke="black" cx="935.396" cy="-739.602" rx="56.0709" ry="19.7049"/>
<text text-anchor="middle" x="935.396" y="-738.263" font-family="Antykwa Torunska" font-size="14.00">[a][s] Blog</text>
</a>
</g>
</g>
<!-- as&#45;&gt;[a][s] Blog -->
<g id="edge3" class="edge"><title>as&#45;&gt;[a][s] Blog</title>
<path fill="none" stroke="black" d="M685.619,-644.4C719.482,-663.458 774.665,-692.751 825.14,-711.602 841.624,-717.759 859.998,-723.043 876.904,-727.309"/>
<polygon fill="black" stroke="black" points="876.117,-730.72 886.663,-729.702 877.784,-723.921 876.117,-730.72"/>
</g>
<!-- [a][s] Visualizations -->
<g id="node5" class="node"><title>[a][s] Visualizations</title>
<g id="a_node5"><a xlink:href="http://vis.adjectivespecies.com" xlink:title="[a][s] Visualizations">
<ellipse fill="none" stroke="black" cx="935.396" cy="-682.602" rx="95.4478" ry="19.7049"/>
<text text-anchor="middle" x="935.396" y="-681.263" font-family="Antykwa Torunska" font-size="14.00">[a][s] Visualizations</text>
</a>
</g>
</g>
<!-- as&#45;&gt;[a][s] Visualizations -->
<g id="edge4" class="edge"><title>as&#45;&gt;[a][s] Visualizations</title>
<path fill="none" stroke="black" d="M727.515,-640.653C767.253,-648.711 816.169,-658.629 856.458,-666.799"/>
<polygon fill="black" stroke="black" points="856.008,-670.279 866.504,-668.836 857.399,-663.418 856.008,-670.279"/>
</g>
<!-- The Furry Poll -->
<g id="node6" class="node"><title>The Furry Poll</title>
<g id="a_node6"><a xlink:href="https://furrypoll.com" xlink:title="The Furry Poll">
<ellipse fill="none" stroke="black" cx="935.396" cy="-625.602" rx="78.0034" ry="19.7049"/>
<text text-anchor="middle" x="935.396" y="-624.263" font-family="Antykwa Torunska" font-size="14.00">The Furry Poll</text>
</a>
</g>
</g>
<!-- as&#45;&gt;The Furry Poll -->
<g id="edge5" class="edge"><title>as&#45;&gt;The Furry Poll</title>
<path fill="none" stroke="black" d="M768.843,-625.602C794.93,-625.602 822.203,-625.602 846.912,-625.602"/>
<polygon fill="black" stroke="black" points="846.969,-629.102 856.969,-625.602 846.969,-622.102 846.969,-629.102"/>
</g>
<!-- Love ◦ Sex ◦ Fur -->
<g id="node7" class="node"><title>Love ◦ Sex ◦ Fur</title>
<g id="a_node7"><a xlink:href="http://lovesexfur.com" xlink:title="Love ◦ Sex ◦ Fur">
<ellipse fill="none" stroke="black" cx="935.396" cy="-568.602" rx="88.5782" ry="19.7049"/>
<text text-anchor="middle" x="935.396" y="-567.263" font-family="Antykwa Torunska" font-size="14.00">Love ◦ Sex ◦ Fur</text>
</a>
</g>
</g>
<!-- as&#45;&gt;Love ◦ Sex ◦ Fur -->
<g id="edge6" class="edge"><title>as&#45;&gt;Love ◦ Sex ◦ Fur</title>
<path fill="none" stroke="black" d="M727.515,-610.552C768.239,-602.294 818.602,-592.082 859.44,-583.801"/>
<polygon fill="black" stroke="black" points="860.232,-587.212 869.337,-581.794 858.841,-580.351 860.232,-587.212"/>
</g>
<!-- LSF Guides -->
<g id="node8" class="node"><title>LSF Guides</title>
<g id="a_node8"><a xlink:href="http://guides.lovesexfur.com" xlink:title="LSF Guides">
<ellipse fill="none" stroke="black" cx="935.396" cy="-511.602" rx="63.4008" ry="19.7049"/>
<text text-anchor="middle" x="935.396" y="-510.263" font-family="Antykwa Torunska" font-size="14.00">LSF Guides</text>
</a>
</g>
</g>
<!-- as&#45;&gt;LSF Guides -->
<g id="edge7" class="edge"><title>as&#45;&gt;LSF Guides</title>
<path fill="none" stroke="black" d="M751.881,-615.278C765.133,-611.102 777.983,-605.388 789.14,-597.602 814.021,-580.239 800.68,-557.552 825.14,-539.602 837.005,-530.895 851.319,-524.888 865.623,-520.744"/>
<polygon fill="black" stroke="black" points="866.704,-524.08 875.494,-518.164 864.933,-517.307 866.704,-524.08"/>
</g>
<!-- Writing | Drab Makyo -->
<g id="node12" class="node"><title>Writing | Drab Makyo</title>
<g id="a_node12"><a xlink:href="http://writing.drab-makyo.com" xlink:title="Writing | Drab Makyo">
<ellipse fill="none" stroke="black" cx="652.29" cy="-454.602" rx="112.497" ry="19.7049"/>
<text text-anchor="middle" x="652.29" y="-453.263" font-family="Antykwa Torunska" font-size="14.00">Writing | Drab Makyo</text>
</a>
</g>
</g>
<!-- Drab Makyo&#45;&gt;Writing | Drab Makyo -->
<g id="edge11" class="edge"><title>Drab Makyo&#45;&gt;Writing | Drab Makyo</title>
<path fill="none" stroke="black" d="M402.739,-408.19C448.254,-416.689 512.909,-428.762 564.867,-438.464"/>
<polygon fill="black" stroke="black" points="564.274,-441.914 574.747,-440.309 565.559,-435.033 564.274,-441.914"/>
</g>
<!-- Photography | Drab Makyo -->
<g id="node13" class="node"><title>Photography | Drab Makyo</title>
<g id="a_node13"><a xlink:href="http://makyo.photography" xlink:title="Photography | Drab Makyo">
<ellipse fill="none" stroke="black" cx="652.29" cy="-397.602" rx="136.702" ry="19.7049"/>
<text text-anchor="middle" x="652.29" y="-396.263" font-family="Antykwa Torunska" font-size="14.00">Photography | Drab Makyo</text>
</a>
</g>
</g>
<!-- Drab Makyo&#45;&gt;Photography | Drab Makyo -->
<g id="edge12" class="edge"><title>Drab Makyo&#45;&gt;Photography | Drab Makyo</title>
<path fill="none" stroke="black" d="M413.784,-397.602C440.806,-397.602 473.034,-397.602 504.899,-397.602"/>
<polygon fill="black" stroke="black" points="505.225,-401.102 515.225,-397.602 505.225,-394.102 505.225,-401.102"/>
</g>
<!-- IdeaWheel -->
<g id="node15" class="node"><title>IdeaWheel</title>
<g id="a_node15"><a xlink:href="http://ideas.jnsq.us" xlink:title="IdeaWheel">
<ellipse fill="none" stroke="black" cx="652.29" cy="-340.602" rx="60.0369" ry="19.7049"/>
<text text-anchor="middle" x="652.29" y="-339.263" font-family="Antykwa Torunska" font-size="14.00">IdeaWheel</text>
</a>
</g>
</g>
<!-- JNSQ&#45;&gt;IdeaWheel -->
<g id="edge14" class="edge"><title>JNSQ&#45;&gt;IdeaWheel</title>
<path fill="none" stroke="black" d="M379.579,-289.865C430.151,-299.309 526.731,-317.343 590.067,-329.17"/>
<polygon fill="black" stroke="black" points="589.461,-332.617 599.934,-331.012 590.746,-325.736 589.461,-332.617"/>
</g>
<!-- Warren -->
<g id="node16" class="node"><title>Warren</title>
<g id="a_node16"><a xlink:href="https://warren.community" xlink:title="Warren">
<ellipse fill="none" stroke="black" cx="652.29" cy="-283.602" rx="46.1111" ry="19.7049"/>
<text text-anchor="middle" x="652.29" y="-282.263" font-family="Antykwa Torunska" font-size="14.00">Warren</text>
</a>
</g>
</g>
<!-- JNSQ&#45;&gt;Warren -->
<g id="edge15" class="edge"><title>JNSQ&#45;&gt;Warren</title>
<path fill="none" stroke="black" d="M381.353,-283.602C433.979,-283.602 533.461,-283.602 595.848,-283.602"/>
<polygon fill="black" stroke="black" points="595.908,-287.102 605.908,-283.602 595.908,-280.102 595.908,-287.102"/>
</g>
<!-- Trans Stock Photography -->
<g id="node17" class="node"><title>Trans Stock Photography</title>
<g id="a_node17"><a xlink:href="http://transstock.photography" xlink:title="Trans Stock Photography">
<ellipse fill="none" stroke="black" cx="652.29" cy="-226.602" rx="128.67" ry="19.7049"/>
<text text-anchor="middle" x="652.29" y="-225.263" font-family="Antykwa Torunska" font-size="14.00">Trans Stock Photography</text>
</a>
</g>
</g>
<!-- JNSQ&#45;&gt;Trans Stock Photography -->
<g id="edge16" class="edge"><title>JNSQ&#45;&gt;Trans Stock Photography</title>
<path fill="none" stroke="black" d="M379.579,-277.339C422.711,-269.285 499.311,-254.981 560.209,-243.61"/>
<polygon fill="black" stroke="black" points="561.038,-247.016 570.225,-241.739 559.753,-240.135 561.038,-247.016"/>
</g>
<!-- polycul.es -->
<g id="node18" class="node"><title>polycul.es</title>
<g id="a_node18"><a xlink:href="http://polycul.es" xlink:title="polycul.es">
<ellipse fill="none" stroke="black" cx="652.29" cy="-169.602" rx="55.3529" ry="19.7049"/>
<text text-anchor="middle" x="652.29" y="-168.263" font-family="Antykwa Torunska" font-size="14.00">polycul.es</text>
</a>
</g>
</g>
<!-- JNSQ&#45;&gt;polycul.es -->
<g id="edge17" class="edge"><title>JNSQ&#45;&gt;polycul.es</title>
<path fill="none" stroke="black" d="M381.337,-283.62C410.108,-281.999 450.56,-275.833 479.439,-255.602 504.288,-238.194 490.559,-214.965 515.439,-197.602 536.088,-183.192 562.532,-175.883 586.594,-172.277"/>
<polygon fill="black" stroke="black" points="587.275,-175.718 596.736,-170.949 586.366,-168.777 587.275,-175.718"/>
</g>
<!-- GitHub -->
<g id="node21" class="node"><title>GitHub</title>
<polygon fill="none" stroke="black" points="652.29,-132.547 590.537,-104.602 652.29,-76.657 714.042,-104.602 652.29,-132.547"/>
<text text-anchor="middle" x="652.29" y="-103.263" font-family="Antykwa Torunska" font-size="14.00">GitHub</text>
</g>
<!-- IP accounts&#45;&gt;GitHub -->
<g id="edge20" class="edge"><title>IP accounts&#45;&gt;GitHub</title>
<path fill="none" stroke="black" d="M435.562,-104.602C481.652,-104.602 537.06,-104.602 580.182,-104.602"/>
<polygon fill="black" stroke="black" points="580.305,-108.102 590.305,-104.602 580.305,-101.102 580.305,-108.102"/>
</g>
<!-- Launchpad -->
<g id="node26" class="node"><title>Launchpad</title>
<g id="a_node26"><a xlink:href="https://launchpad.net/~makyo" xlink:title="Launchpad">
<ellipse fill="none" stroke="black" cx="652.29" cy="-39.6022" rx="60.7676" ry="19.7049"/>
<text text-anchor="middle" x="652.29" y="-38.263" font-family="Antykwa Torunska" font-size="14.00">Launchpad</text>
</a>
</g>
</g>
<!-- IP accounts&#45;&gt;Launchpad -->
<g id="edge25" class="edge"><title>IP accounts&#45;&gt;Launchpad</title>
<path fill="none" stroke="black" d="M398.278,-93.0257C431.749,-85.6498 476.127,-75.9463 515.439,-67.6022 539.967,-62.396 567.016,-56.7927 590.478,-51.9767"/>
<polygon fill="black" stroke="black" points="591.203,-55.4011 600.296,-49.9643 589.797,-48.5436 591.203,-55.4011"/>
</g>
<!-- Makyo @ GitHub -->
<g id="node22" class="node"><title>Makyo @ GitHub</title>
<g id="a_node22"><a xlink:href="https://github.com/makyo" xlink:title="Makyo @ GitHub">
<ellipse fill="none" stroke="black" cx="935.396" cy="-190.602" rx="90.6095" ry="19.7049"/>
<text text-anchor="middle" x="935.396" y="-189.263" font-family="Antykwa Torunska" font-size="14.00">Makyo @ GitHub</text>
</a>
</g>
</g>
<!-- GitHub&#45;&gt;Makyo @ GitHub -->
<g id="edge21" class="edge"><title>GitHub&#45;&gt;Makyo @ GitHub</title>
<path fill="none" stroke="black" d="M696.264,-112.651C723.53,-118.564 759.187,-127.804 789.14,-140.602 806.383,-147.97 807.867,-155.305 825.14,-162.602 835.92,-167.156 847.622,-171.11 859.227,-174.496"/>
<polygon fill="black" stroke="black" points="858.357,-177.887 868.93,-177.207 860.241,-171.145 858.357,-177.887"/>
</g>
<!-- [a][s] @ GitHub -->
<g id="node23" class="node"><title>[a][s] @ GitHub</title>
<g id="a_node23"><a xlink:href="https://github.com/adjspecies" xlink:title="[a][s] @ GitHub">
<ellipse fill="none" stroke="black" cx="935.396" cy="-133.602" rx="79.7221" ry="19.7049"/>
<text text-anchor="middle" x="935.396" y="-132.263" font-family="Antykwa Torunska" font-size="14.00">[a][s] @ GitHub</text>
</a>
</g>
</g>
<!-- GitHub&#45;&gt;[a][s] @ GitHub -->
<g id="edge22" class="edge"><title>GitHub&#45;&gt;[a][s] @ GitHub</title>
<path fill="none" stroke="black" d="M702.899,-109.72C743.954,-113.955 803.151,-120.062 851.405,-125.041"/>
<polygon fill="black" stroke="black" points="851.219,-128.54 861.525,-126.085 851.937,-121.577 851.219,-128.54"/>
</g>
<!-- OpenFurry @ GitHub -->
<g id="node24" class="node"><title>OpenFurry @ GitHub</title>
<g id="a_node24"><a xlink:href="https://github.com/openfurry" xlink:title="OpenFurry @ GitHub">
<ellipse fill="none" stroke="black" cx="935.396" cy="-76.6022" rx="110.012" ry="19.7049"/>
<text text-anchor="middle" x="935.396" y="-75.263" font-family="Antykwa Torunska" font-size="14.00">OpenFurry @ GitHub</text>
</a>
</g>
</g>
<!-- GitHub&#45;&gt;OpenFurry @ GitHub -->
<g id="edge23" class="edge"><title>GitHub&#45;&gt;OpenFurry @ GitHub</title>
<path fill="none" stroke="black" d="M703.222,-99.6286C738.058,-96.1587 785.841,-91.3992 828.925,-87.1077"/>
<polygon fill="black" stroke="black" points="829.296,-90.5882 838.9,-86.1142 828.602,-83.6227 829.296,-90.5882"/>
</g>
<!-- Warren @ GitHub -->
<g id="node25" class="node"><title>Warren @ GitHub</title>
<g id="a_node25"><a xlink:href="https://github.com/warren-community" xlink:title="Warren @ GitHub">
<ellipse fill="none" stroke="black" cx="935.396" cy="-19.6022" rx="94.128" ry="19.7049"/>
<text text-anchor="middle" x="935.396" y="-18.263" font-family="Antykwa Torunska" font-size="14.00">Warren @ GitHub</text>
</a>
</g>
</g>
<!-- GitHub&#45;&gt;Warren @ GitHub -->
<g id="edge24" class="edge"><title>GitHub&#45;&gt;Warren @ GitHub</title>
<path fill="none" stroke="black" d="M696.175,-96.3421C723.406,-90.3465 759.057,-81.0932 789.14,-68.6022 806.247,-61.4989 808.004,-54.6356 825.14,-47.6022 835.648,-43.2893 847.004,-39.4933 858.283,-36.2014"/>
<polygon fill="black" stroke="black" points="859.467,-39.5047 868.153,-33.438 857.579,-32.764 859.467,-39.5047"/>
</g>
</g>
</svg>
